<?xml version="1.0" standalone="no"?>
<!DOCTYPE svg PUBLIC "-//W3C//DTD SVG 1.1//EN" "http://www.w3.org/Graphics/SVG/1.1/DTD/svg11.dtd" >
<svg xmlns="http://www.w3.org/2000/svg">
<metadata></metadata>
<defs>
<font id="core_sans_gs25_extralight" horiz-adv-x="1297" >
<font-face units-per-em="2048" ascent="1638" descent="-410" />
<missing-glyph horiz-adv-x="614" />
<glyph unicode="&#xfb01;" horiz-adv-x="1145" d="M881 33v848h-558v-848q0 -18 -12.5 -30t-29.5 -12q-19 0 -31 12t-12 30v848h-148q-16 0 -27.5 11.5t-11.5 27.5t11 27t28 11h148v209q0 183 107 287.5t263 104.5q68 0 143.5 -31t112.5 -72q9 -10 9 -24q0 -15 -10.5 -27t-25.5 -12q-17 0 -31 14q-31 31 -88.5 54.5 t-107.5 23.5q-125 0 -206 -87t-81 -233v-207h603q17 0 28.5 -11t11.5 -29v-885q0 -18 -12.5 -30t-29.5 -12q-19 0 -31 12t-12 30z" />
<glyph unicode="&#xfb02;" horiz-adv-x="1097" d="M908 1502v-1469q0 -18 -12.5 -30t-30.5 -12t-30 12t-12 30v1344q-84 108 -227 108q-126 0 -199.5 -81t-73.5 -237v-209h285q17 0 28 -11t11 -27t-11.5 -27.5t-27.5 -11.5h-285v-848q0 -18 -12.5 -30t-29.5 -12q-19 0 -31 12t-12 30v848h-148q-16 0 -27.5 11.5t-11.5 27.5 t11 27t28 11h148v219q0 185 97 283.5t247 98.5q68 0 132 -25t109 -69v37q0 18 12 30.5t30 12.5q17 0 30 -13t13 -30z" />
<glyph unicode="&#xfb03;" horiz-adv-x="1763" d="M1497 33v848h-558v-848q0 -18 -12.5 -30t-29.5 -12q-19 0 -31 12t-12 30v848h-531v-848q0 -18 -12.5 -30t-29.5 -12q-19 0 -31 12t-12 30v848h-146q-16 0 -27.5 11.5t-11.5 27.5t11 27t28 11h146v183q0 191 83.5 289t231.5 98q119 0 219 -66q21 -15 21 -34 q0 -15 -11 -25.5t-26 -10.5q-13 0 -25 8q-82 54 -174 54q-116 0 -175 -80.5t-59 -233.5v-182h531v209q0 183 107.5 287.5t263.5 104.5q68 0 143.5 -31t112.5 -72q9 -10 9 -24q0 -15 -11 -27t-26 -12q-19 0 -29 14q-28 33 -86.5 55.5t-110.5 22.5q-125 0 -206.5 -87 t-81.5 -233v-207h603q17 0 28.5 -11t11.5 -29v-885q0 -18 -12.5 -30t-29.5 -12q-19 0 -31 12t-12 30z" />
<glyph unicode="&#xfb04;" horiz-adv-x="1714" d="M1440 33v1344q-84 108 -228 108q-124 0 -198.5 -82.5t-74.5 -235.5v-209h286q17 0 28 -11t11 -27t-11 -27.5t-28 -11.5h-286v-848q0 -18 -12.5 -30t-29.5 -12q-19 0 -31 12t-12 30v848h-531v-848q0 -18 -12.5 -30t-29.5 -12q-19 0 -31 12t-12 30v848h-146 q-16 0 -27.5 11.5t-11.5 27.5t11 27t28 11h146v183q0 191 83.5 289t231.5 98q82 0 161 -32.5t79 -67.5q0 -15 -11 -25.5t-26 -10.5q-13 0 -25 8q-82 54 -174 54q-116 0 -175 -80.5t-59 -233.5v-182h531v219q0 184 97 282.5t247 98.5q152 0 242 -99v43q0 18 12 30.5t30 12.5 q17 0 30 -13t13 -30v-1469q0 -18 -12.5 -30t-30.5 -12t-30 12t-12 30z" />
<glyph horiz-adv-x="0" />
<glyph horiz-adv-x="0" />
<glyph horiz-adv-x="682" />
<glyph unicode="&#x9;" horiz-adv-x="485" />
<glyph unicode=" "  horiz-adv-x="614" />
<glyph unicode="&#x09;" horiz-adv-x="614" />
<glyph unicode="&#xa0;" horiz-adv-x="614" />
<glyph unicode="!" horiz-adv-x="606" d="M258 388v1010q0 20 13 32.5t32 12.5t32 -12.5t13 -32.5v-1010q0 -20 -13 -32.5t-32 -12.5t-32 12.5t-13 32.5zM228 49q0 32 21 53t54 21q32 0 53.5 -21t21.5 -53t-21.5 -53t-53.5 -21q-33 0 -54 21t-21 53z" />
<glyph unicode="&#x22;" horiz-adv-x="984" d="M301 862q-29 0 -45 35v487q0 59 45 59q39 0 39 -43q0 -7 -2 -21v-482q0 -15 -11 -25t-26 -10zM684 862q-29 0 -45 35v487q0 59 45 59q39 0 39 -43q0 -7 -2 -21v-482q0 -15 -11 -25t-26 -10z" />
<glyph unicode="#" horiz-adv-x="1386" d="M929 32v370h-471v-370q0 -20 -13 -32.5t-32 -12.5t-32 12.5t-13 32.5v370h-213q-17 0 -28 10t-11 27t11 27.5t28 10.5h213v484h-213q-18 0 -28.5 9.5t-10.5 26.5t11 27.5t28 10.5h213v363q0 20 13 32.5t32 12.5t32 -12.5t13 -32.5v-363h471v363q0 20 12.5 32.5t32.5 12.5 t32.5 -12.5t12.5 -32.5v-363h213q17 0 28 -10.5t11 -27.5q0 -36 -38 -36h-214v-484h213q17 0 28 -10.5t11 -27.5t-10.5 -27t-27.5 -10h-214v-370q0 -20 -12.5 -32.5t-32.5 -12.5t-32.5 12.5t-12.5 32.5zM458 961v-484h471v484h-471z" />
<glyph unicode="$" horiz-adv-x="1053" d="M569 834q190 -76 277.5 -187.5t87.5 -273.5q0 -153 -97.5 -264.5t-267.5 -128.5v-131q0 -17 -11.5 -27.5t-28.5 -10.5t-28 10.5t-11 27.5v127q-118 4 -220.5 63.5t-164.5 157.5q-9 14 -9 27q0 15 12 28.5t30 13.5q22 0 36 -21q53 -88 143.5 -137t194.5 -49q142 0 237 91 t95 222t-74 224.5t-261 169.5q-162 66 -241.5 157t-79.5 230q0 117 79 201.5t203 97.5v121q0 17 11 28.5t28 11.5t28.5 -11.5t11.5 -28.5v-116q143 -12 232 -116q18 -23 18 -35q0 -16 -12 -27.5t-29 -11.5q-20 0 -36 18q-78 89 -200 89q-107 0 -175 -62t-68 -160 q0 -110 64.5 -181.5t225.5 -136.5z" />
<glyph unicode="%" horiz-adv-x="1851" d="M796 1126q0 -136 -98.5 -233t-234.5 -97t-234.5 97t-98.5 233q0 137 98.5 234.5t234.5 97.5t234.5 -97.5t98.5 -234.5zM209 1126q0 -104 74.5 -180.5t179.5 -76.5q104 0 178.5 76.5t74.5 180.5q0 105 -74.5 181t-178.5 76q-105 0 -179.5 -76t-74.5 -181zM1721 306 q0 -136 -98 -233.5t-234 -97.5t-234.5 97.5t-98.5 233.5q0 137 98.5 234.5t234.5 97.5t234 -97.5t98 -234.5zM1136 306q0 -104 74.5 -180.5t178.5 -76.5q105 0 179 76.5t74 180.5q0 105 -74 181t-179 76q-104 0 -178.5 -76t-74.5 -181zM392 39l1009 1403q9 14 30 14 q15 0 26 -11.5t11 -26.5q0 -11 -9 -24l-1008 -1402q-11 -16 -30 -16q-15 0 -26.5 11.5t-11.5 26.5q0 12 9 25z" />
<glyph unicode="&#x26;" horiz-adv-x="1313" d="M530 -19q-182 0 -291.5 100t-109.5 260q0 122 77 224t256 223q-100 127 -145 212.5t-45 160.5q0 130 84.5 211t216.5 81q122 0 208 -86.5t86 -220.5q0 -106 -73 -193.5t-214 -181.5l395 -511q77 69 172 184q12 14 31 14q17 0 28.5 -12t11.5 -27q0 -22 -18 -45 q-81 -97 -173 -181q13 -17 63.5 -82.5t78.5 -100.5q13 -15 13 -32q0 -19 -12.5 -31.5t-31.5 -12.5q-24 0 -41 23l-141 181q-200 -157 -426 -157zM216 333q0 -117 85.5 -194t224.5 -77q194 0 377 146q-131 171 -391 515q-172 -121 -234 -201t-62 -189zM777 1154q0 91 -60 154 t-145 63q-99 0 -155 -60.5t-56 -151.5q0 -68 40 -140t129 -184q127 80 187 152.5t60 166.5z" />
<glyph unicode="'" horiz-adv-x="601" d="M300 862q-29 0 -45 35v487q0 59 45 59q39 0 39 -43q0 -7 -2 -21v-482q0 -15 -11 -25t-26 -10z" />
<glyph unicode="(" horiz-adv-x="713" d="M241 632q0 463 238 881q11 21 34 21q17 0 28.5 -11t11.5 -27q0 -9 -6 -21q-115 -212 -167 -412t-52 -429t52 -430t167 -413q6 -12 6 -21q0 -16 -11.5 -27t-28.5 -11q-23 0 -34 20q-238 418 -238 880z" />
<glyph unicode=")" horiz-adv-x="713" d="M473 632q0 -460 -239 -880q-11 -20 -33 -20q-17 0 -28.5 11t-11.5 27q0 9 6 21q115 212 167 413t52 430t-52 429t-167 412q-6 12 -6 21q0 16 11.5 27t28.5 11q22 0 33 -21q239 -420 239 -881z" />
<glyph unicode="*" horiz-adv-x="1148" d="M616 984l-14 -258l329 117q31 11 55 11q31 0 38 -25q2 -8 2 -12q0 -32 -70 -55l-80 -28l-242 -65l207 -277q29 -40 29 -65q0 -17 -13 -27q-11 -8 -23 -8q-27 0 -66 47l-186 287l-205 -285q-36 -49 -63 -49q-12 0 -23 8q-13 10 -13 27q0 25 29 65l51 69l159 189l-328 112 q-69 23 -69 55q0 4 2 12q9 26 41 26q17 0 53 -9l315 -126v350q0 84 43 84q42 0 42 -84v-86z" />
<glyph unicode="+" horiz-adv-x="1257" d="M193 717h391v413q0 20 13 33t32 13t32 -13t13 -33v-413h391q17 0 28 -10.5t11 -27.5t-10.5 -27t-27.5 -10h-392v-412q0 -20 -13 -32.5t-32 -12.5t-32 12.5t-13 32.5v412h-391q-17 0 -28 10t-11 27t11 27.5t28 10.5z" />
<glyph unicode="," horiz-adv-x="601" d="M168 -276q0 17 7 38l108 334q12 37 44 37q22 0 33 -14t11 -34q0 -9 -17 -58l-112 -306q-12 -33 -36 -33q-16 0 -27 10.5t-11 25.5z" />
<glyph unicode="-" horiz-adv-x="831" d="M152 718h526q17 0 28 -10.5t11 -27.5t-10.5 -27.5t-27.5 -10.5h-528q-17 0 -27.5 10.5t-10.5 27.5t11 27.5t28 10.5z" />
<glyph unicode="." horiz-adv-x="601" d="M225 50q0 32 21.5 53.5t53.5 21.5t53.5 -21.5t21.5 -53.5t-21.5 -53.5t-53.5 -21.5t-53.5 21.5t-21.5 53.5z" />
<glyph unicode="/" horiz-adv-x="1035" d="M60 -135l810 1628q12 24 37 24q17 0 28.5 -11.5t11.5 -27.5q0 -13 -4 -21l-810 -1629q-13 -25 -37 -25q-17 0 -28.5 11.5t-11.5 29.5q0 13 4 21z" />
<glyph unicode="0" horiz-adv-x="1202" d="M238 717q0 -145 20.5 -262.5t63.5 -207t113.5 -138t165.5 -48.5q94 0 165 49t113.5 138t63.5 206.5t21 262.5t-21 262t-63.5 206t-113.5 137.5t-165 48.5q-95 0 -165.5 -48.5t-113.5 -137.5t-63.5 -206t-20.5 -262zM147 717q0 125 16.5 234.5t52.5 202t89 159 t128.5 103.5t167.5 37q114 0 201.5 -56.5t142 -157.5t82 -233t27.5 -289t-27.5 -289.5t-82 -233.5t-142 -157.5t-201.5 -56.5q-92 0 -167.5 37t-128.5 103.5t-89 159.5t-52.5 202t-16.5 235z" />
<glyph unicode="1" horiz-adv-x="1202" d="M248 1156q0 24 19 36l423 258q7 5 17 5q21 0 21 -23v-1396q0 -19 -13.5 -32t-31.5 -13q-19 0 -32 12.5t-13 32.5v1289l-327 -200q-14 -8 -24 -8q-17 0 -28 11.5t-11 27.5z" />
<glyph unicode="2" horiz-adv-x="1202" d="M195 1214q0 14 7 25q69 101 165 157.5t213 56.5q122 0 212.5 -52t135.5 -137.5t45 -190.5q0 -192 -198 -428l-467 -563h656q17 0 29 -12t12 -29t-12 -29t-29 -12h-776q-22 0 -22 19q0 13 6 19l519 642q98 121 145 213t47 181q0 132 -84.5 214.5t-223.5 82.5 q-186 0 -303 -176q-13 -20 -38 -20q-17 0 -28 11t-11 28z" />
<glyph unicode="3" horiz-adv-x="1202" d="M113 215q0 18 12 30t29 12q19 0 37 -23q63 -84 148.5 -128.5t178.5 -44.5q166 0 271.5 100.5t105.5 258.5q0 149 -111 248.5t-307 123.5q-22 2 -22 21q0 6 5 14l341 525h-565q-17 0 -29 12t-12 29t12 29t29 12h678q8 0 14.5 -7t6.5 -15q0 -7 -6 -15l-358 -547 q205 -46 309.5 -162t104.5 -273q0 -83 -29.5 -159t-85 -138.5t-146 -100t-202.5 -37.5q-110 0 -217.5 52.5t-180.5 151.5q-11 15 -11 31z" />
<glyph unicode="4" horiz-adv-x="1202" d="M61 328q0 10 15 31l760 1067q18 25 35 25q9 0 16.5 -7.5t7.5 -18.5v-1033h146q17 0 29 -12t12 -29t-12 -29t-29 -12h-146v-271q0 -22 -12 -35t-33 -13q-45 0 -45 48v271h-723q-9 0 -15 5.5t-6 12.5zM188 391h617v870q-412 -580 -617 -870z" />
<glyph unicode="5" horiz-adv-x="1202" d="M272 782l86 555q9 64 26 80.5t81 16.5h463q17 0 29 -12t12 -29t-12 -29t-29 -12h-481l-76 -495q81 28 168 28q201 0 337.5 -124t136.5 -322q0 -130 -52 -232.5t-159 -164.5t-253 -62q-119 0 -224.5 53t-180.5 156q-10 13 -10 27q0 17 12 29t29 12q23 0 36 -18 q63 -85 149.5 -131.5t176.5 -46.5q99 0 175.5 32.5t121 87t67 119t22.5 135.5q0 167 -113 271.5t-305 104.5q-104 0 -201 -47q-3 -2 -11 -2q-9 0 -15 5.5t-6 14.5z" />
<glyph unicode="6" horiz-adv-x="1202" d="M1076 436q0 -127 -64.5 -233.5t-172.5 -167t-234 -60.5q-194 0 -332 134t-138 327q0 62 20.5 125.5t43 105t67.5 112.5l406 648q17 25 39 25q17 0 29.5 -12.5t12.5 -29.5q0 -13 -11 -28l-346 -553q90 65 210 65q91 0 177 -35t150.5 -94.5t103.5 -146t39 -182.5zM225 436 q0 -159 110 -269t269 -110t270 110t111 269t-111 269.5t-270 110.5q-158 0 -268.5 -110.5t-110.5 -269.5z" />
<glyph unicode="7" horiz-adv-x="1202" d="M157 1393q0 17 12 29t29 12h802q8 0 13.5 -6.5t5.5 -15.5q0 -3 -2 -11l-591 -1391q-12 -28 -43 -28q-18 0 -31 12t-13 30q0 10 3 18l562 1310h-706q-17 0 -29 12t-12 29z" />
<glyph unicode="8" horiz-adv-x="1202" d="M601 -20q-194 0 -327.5 127t-133.5 312q0 145 86.5 255t226.5 151q-92 38 -148.5 117t-56.5 177q0 140 102.5 237t250.5 97t250.5 -97t102.5 -237q0 -98 -56.5 -177t-147.5 -117q138 -41 225 -151.5t87 -254.5q0 -185 -133.5 -312t-327.5 -127zM601 781 q-157 0 -264 -104.5t-107 -256.5q0 -150 107.5 -254.5t263.5 -104.5t263.5 104.5t107.5 254.5q0 152 -107.5 256.5t-263.5 104.5zM601 859q110 0 187.5 75.5t77.5 183.5q0 107 -77.5 181.5t-187.5 74.5q-113 0 -189 -74.5t-76 -181.5q0 -109 76 -184t189 -75z" />
<glyph unicode="9" horiz-adv-x="1202" d="M133 997q0 127 64.5 232t172.5 164.5t234 59.5q194 0 332 -132t138 -324q0 -62 -21.5 -127.5t-43.5 -104.5t-68 -112l-404 -648q-14 -21 -37 -21q-18 0 -30 11.5t-12 28.5q0 13 9 29l346 550q-87 -63 -210 -63t-230.5 58.5t-173.5 164.5t-66 234zM984 997q0 158 -110 266 t-269 108t-270 -108t-111 -266q0 -159 111 -270t270 -111q158 0 268.5 110.5t110.5 270.5z" />
<glyph unicode=":" horiz-adv-x="601" d="M225 1015q0 32 21.5 53.5t53.5 21.5t53.5 -21.5t21.5 -53.5t-21.5 -53.5t-53.5 -21.5t-53.5 21.5t-21.5 53.5zM225 50q0 32 21.5 53.5t53.5 21.5t53.5 -21.5t21.5 -53.5t-21.5 -53.5t-53.5 -21.5t-53.5 21.5t-21.5 53.5z" />
<glyph unicode=";" horiz-adv-x="601" d="M225 1015q0 32 21.5 53.5t53.5 21.5t53.5 -21.5t21.5 -53.5t-21.5 -53.5t-53.5 -21.5t-53.5 21.5t-21.5 53.5zM168 -276q0 17 7 38l108 334q12 37 44 37q22 0 33 -14t11 -34q0 -9 -17 -58l-112 -306q-12 -33 -36 -33q-16 0 -27 10.5t-11 25.5z" />
<glyph unicode="&#x3c;" horiz-adv-x="1266" d="M165 680q0 10 11 16l858 506q10 5 19 5q17 0 27.5 -10.5t10.5 -27.5q0 -23 -23 -36l-773 -453l773 -455q23 -13 23 -35q0 -17 -10.5 -28t-27.5 -11q-7 0 -17 5l-860 507q-11 5 -11 17z" />
<glyph unicode="=" horiz-adv-x="1266" d="M204 943h857q17 0 28 -10.5t11 -27.5t-10.5 -27t-27.5 -10h-858q-17 0 -28 10t-11 27t11 27.5t28 10.5zM204 492h857q17 0 28 -10.5t11 -27.5t-10.5 -27.5t-27.5 -10.5h-858q-17 0 -28 10.5t-11 27.5t11 27.5t28 10.5z" />
<glyph unicode="&#x3e;" horiz-adv-x="1266" d="M1101 680q0 -12 -11 -17l-861 -507q-10 -5 -16 -5q-17 0 -27.5 11t-10.5 28q0 22 23 35l773 455l-773 453q-23 13 -23 36q0 17 10.5 27.5t27.5 10.5q8 0 18 -5l859 -506q11 -6 11 -16z" />
<glyph unicode="?" horiz-adv-x="1005" d="M114 1264q0 21 14 33q171 161 371 161q172 0 278.5 -88.5t106.5 -229.5q0 -246 -343 -392q-98 -41 -142.5 -86t-44.5 -111q0 -61 41.5 -97t101.5 -36q39 0 99 35q16 8 21 8q15 0 25.5 -11t10.5 -25q0 -18 -13 -29q-61 -52 -154 -52t-156 58t-63 148q0 74 51 141t150 109 q171 72 250 153t79 188q0 103 -78 171.5t-222 68.5q-85 0 -171 -39t-142 -103q-12 -15 -30 -15q-17 0 -28.5 11.5t-11.5 28.5zM392 50q0 32 21.5 53.5t53.5 21.5t53.5 -21.5t21.5 -53.5t-21.5 -53.5t-53.5 -21.5t-53.5 21.5t-21.5 53.5z" />
<glyph unicode="@" horiz-adv-x="2030" d="M1338 764v160q0 17 11 28.5t28 11.5t28.5 -12t11.5 -28v-529q0 -86 42 -135.5t110 -49.5q126 0 198.5 108t72.5 298q0 156 -61.5 299t-169 250t-264.5 171t-338 64q-170 0 -322.5 -66.5t-261 -179t-172 -266t-63.5 -321.5q0 -161 63.5 -313t173.5 -268.5t269.5 -187.5 t339.5 -71q273 0 497 129q8 5 17 5q13 0 22 -8.5t9 -20.5q0 -18 -16 -27q-238 -137 -529 -137q-192 0 -363.5 75t-290.5 199t-188 287.5t-69 337.5q0 176 67.5 339t183.5 285t281.5 194.5t351.5 72.5q192 0 361.5 -70.5t286 -187.5t184 -269.5t67.5 -314.5 q0 -207 -90.5 -338t-260.5 -131q-89 0 -146 57t-68 149q-51 -100 -149 -158t-216 -58q-113 0 -210 55t-154.5 152t-57.5 213q0 178 123.5 298t297.5 120q118 0 214.5 -56.5t148.5 -154.5zM632 557q0 -145 102 -246t249 -101q148 0 250.5 101t102.5 246q0 147 -102.5 248 t-250.5 101q-147 0 -249 -101t-102 -248z" />
<glyph unicode="A" d="M648 1454q17 0 25 -17l570 -1394q5 -10 5 -19q0 -18 -12 -30t-29 -12q-30 0 -41 27l-157 390h-721l-158 -389q-12 -29 -40 -29q-18 0 -30.5 12t-12.5 30q0 3 1.5 8t2.5 9l1 4l571 1393q7 17 25 17zM648 1288l-330 -812h659z" />
<glyph unicode="B" horiz-adv-x="1082" d="M191 41v1352q0 17 11.5 29t29.5 12h229q103 0 185 -28.5t132 -76t76.5 -106t26.5 -122.5q0 -248 -236 -330q91 -20 157.5 -60t103.5 -92.5t54.5 -109t17.5 -118.5q0 -165 -118.5 -278t-318.5 -113h-309q-18 0 -29.5 11.5t-11.5 29.5zM282 725v-646h240q171 0 268.5 90.5 t97.5 231.5q0 140 -103 232t-282 92h-221zM282 1355v-551h189q145 0 233 78t88 198q0 118 -85 196.5t-244 78.5h-181z" />
<glyph unicode="C" horiz-adv-x="1473" d="M120 717q0 206 100.5 375.5t271.5 265t374 95.5q279 0 494 -184q12 -10 12 -31q0 -17 -12.5 -30.5t-29.5 -13.5q-16 0 -28 10q-192 165 -436 165q-133 0 -254 -50t-209.5 -135.5t-140.5 -207.5t-52 -259q0 -184 88.5 -334t239 -234t328.5 -84q248 0 436 162q13 11 26 11 q19 0 31.5 -12.5t12.5 -31.5q0 -20 -14 -31q-214 -182 -492 -182q-152 0 -289.5 56.5t-238 153.5t-159.5 234t-59 292z" />
<glyph unicode="D" horiz-adv-x="1405" d="M282 1350v-1266h267q184 0 330.5 77t231.5 222t85 334t-85 334t-231.5 222t-330.5 77h-267zM549 0h-317q-18 0 -29.5 11.5t-11.5 29.5v1352q0 17 11.5 29t29.5 12h317q153 0 288.5 -51.5t234.5 -143.5t156.5 -227.5t57.5 -294.5q0 -212 -98.5 -376.5t-266 -252.5 t-372.5 -88z" />
<glyph unicode="E" horiz-adv-x="966" d="M191 43v1347q0 19 13 31.5t32 12.5h556q17 0 29.5 -12.5t12.5 -29.5q0 -18 -12.5 -30t-29.5 -12h-510v-503h456q17 0 29 -12t12 -29t-12 -29t-29 -12h-456v-681h531q17 0 29.5 -12.5t12.5 -29.5q0 -18 -12.5 -30t-29.5 -12h-577q-19 0 -32 12t-13 31z" />
<glyph unicode="F" horiz-adv-x="886" d="M191 36v1354q0 19 12 31.5t31 12.5h549q18 0 30 -12t12 -31q0 -17 -12 -29t-30 -12h-501v-524h443q18 0 30 -12t12 -30t-12 -30t-30 -12h-443v-706q0 -19 -13 -32t-32 -13q-20 0 -33 13t-13 32z" />
<glyph unicode="G" horiz-adv-x="1635" d="M866 1369q-133 0 -254 -50t-209.5 -135.5t-140.5 -207.5t-52 -259q0 -184 88.5 -334t239 -234t328.5 -84q125 0 229 45t173.5 122.5t111.5 177.5t51 214h-387q-18 0 -30 12.5t-12 29.5q0 18 12 30t30 12h440q40 0 42 -46q-9 -192 -89 -345.5t-229 -244.5t-342 -91 q-152 0 -289.5 56.5t-238 153.5t-159.5 234t-59 292q0 206 100.5 375.5t271.5 265t374 95.5q172 0 316.5 -70t249.5 -191q13 -15 13 -30q0 -19 -13 -31.5t-31 -12.5q-19 0 -35 19q-94 108 -223 170t-277 62z" />
<glyph unicode="H" horiz-adv-x="1326" d="M1134 1398v-1362q0 -19 -13 -32t-32 -13q-20 0 -33 13t-13 32v710h-761v-710q0 -19 -13 -32t-32 -13q-20 0 -33 13t-13 32v1362q0 18 13.5 31.5t32.5 13.5t32 -13.5t13 -31.5v-568h761v568q0 18 13.5 31.5t32.5 13.5t32 -13.5t13 -31.5z" />
<glyph unicode="I" horiz-adv-x="521" d="M305 1398v-1362q0 -19 -13 -32t-32 -13q-20 0 -32.5 12.5t-12.5 32.5v1362q0 18 13 31.5t32 13.5t32 -13.5t13 -31.5z" />
<glyph unicode="J" horiz-adv-x="822" d="M10 132q0 18 12.5 30.5t30.5 12.5q21 0 34 -15q80 -95 193 -95q127 0 193.5 88.5t66.5 257.5v987q0 18 13 31.5t32 13.5q18 0 31.5 -13.5t13.5 -31.5v-986q0 -218 -93.5 -324.5t-255.5 -106.5q-74 0 -141 31t-113 85q-17 19 -17 35z" />
<glyph unicode="K" horiz-adv-x="1129" d="M191 34v1367q0 19 13 31.5t33 12.5q19 0 32 -12.5t13 -31.5v-665l657 703q13 13 34 13q20 0 33 -13t13 -33q0 -18 -10 -30l-616 -640l683 -678q15 -15 15 -33q0 -20 -13.5 -33.5t-33.5 -13.5q-19 0 -34 17l-728 741v-702q0 -19 -13 -32t-32 -13q-20 0 -33 13t-13 32z" />
<glyph unicode="L" horiz-adv-x="915" d="M191 45v1353q0 18 13.5 31.5t32.5 13.5t32 -13.5t13 -31.5v-1314h553q18 0 30 -12.5t12 -29.5q0 -18 -12 -30t-30 -12h-598q-20 0 -33 13t-13 32z" />
<glyph unicode="M" horiz-adv-x="1762" d="M881 -5q-18 0 -23 16q-298 924 -398 1236l-313 -1231q-4 -15 -17 -25.5t-29 -10.5q-19 0 -32.5 13.5t-13.5 32.5q0 7 3 16l372 1397q5 16 21 16q18 0 23 -14l407 -1241l407 1241q5 16 22 16t22 -18l370 -1396q3 -9 3 -17q0 -19 -13.5 -32.5t-32.5 -13.5q-16 0 -28 10.5 t-16 25.5l-312 1231l-400 -1236q-5 -16 -22 -16z" />
<glyph unicode="N" horiz-adv-x="1484" d="M239 1446l964 -1275v1227q0 18 13 31.5t32 13.5q18 0 31.5 -13.5t13.5 -31.5v-1396q0 -10 -8 -18t-19 -8q-13 0 -22 12l-962 1275v-1227q0 -19 -13 -32t-32 -13q-20 0 -33 13t-13 32v1395q0 10 7.5 17.5t18.5 7.5q15 0 22 -10z" />
<glyph unicode="O" horiz-adv-x="1732" d="M210 717q0 -184 88.5 -334t239 -234t328.5 -84t328.5 84t239.5 234.5t89 333.5q0 137 -52.5 259t-141 207.5t-209.5 135.5t-254 50t-254 -50t-209.5 -135.5t-140.5 -207.5t-52 -259zM120 717q0 206 100.5 375.5t271.5 265t374 95.5t374 -95.5t272 -265t101 -375.5 q0 -155 -59.5 -292t-160 -234t-238 -153.5t-289.5 -56.5t-289.5 56.5t-238 153.5t-159.5 234t-59 292z" />
<glyph unicode="P" horiz-adv-x="1025" d="M191 34v1357q0 19 12 31t31 12h242q214 0 340 -116t126 -292t-126 -292t-340 -116h-194v-584q0 -18 -13 -30.5t-32 -12.5t-32.5 12.5t-13.5 30.5zM282 1352v-652h190q172 0 276 89t104 237t-104 237t-276 89h-190z" />
<glyph unicode="Q" horiz-adv-x="1732" d="M120 716q0 154 59 291.5t159.5 235t238 154t289.5 56.5t289.5 -56.5t238 -154t160 -235t59.5 -291.5q0 -151 -55 -283.5t-155 -232.5l155 -157q13 -15 13 -30q0 -17 -12.5 -29.5t-29.5 -12.5q-18 0 -34 18l-154 155q-206 -166 -475 -166q-203 0 -374 96t-271.5 266 t-100.5 376zM210 716q0 -184 88.5 -334.5t239 -235t328.5 -84.5q232 0 414 145l-270 273q-15 15 -15 32t12 29.5t29 12.5t32 -15l274 -278q181 189 181 455q0 183 -89 333.5t-239.5 235t-328.5 84.5t-328.5 -84.5t-239 -235t-88.5 -333.5z" />
<glyph unicode="R" horiz-adv-x="1081" d="M352 728q0 10 6.5 17t16.5 8q100 5 177 25t124.5 48.5t77 68t41 78.5t11.5 84q0 132 -99 213.5t-275 81.5h-150v-1316q0 -19 -13 -32t-32 -13q-20 0 -33 13t-13 32v1355q0 19 12 31t31 12h211q204 0 327.5 -104.5t123.5 -274.5q0 -45 -9.5 -86.5t-37.5 -89t-73 -84.5 t-122.5 -67t-179.5 -42l541 -635q12 -16 12 -28q0 -17 -12.5 -29.5t-29.5 -12.5q-22 0 -34 17l-594 715q-5 7 -5 15z" />
<glyph unicode="S" horiz-adv-x="1053" d="M569 834q190 -77 277.5 -187.5t87.5 -271.5q0 -165 -114 -279.5t-309 -114.5q-124 0 -232.5 59t-175.5 162q-6 9 -6 22q0 18 12 30t30 12q22 0 36 -19q59 -87 146.5 -134.5t190.5 -47.5q142 0 237 89t95 220t-75 224t-260 168q-162 65 -241.5 155.5t-79.5 228.5 q0 128 94 215.5t236 87.5q166 0 262 -115q13 -17 13 -30q0 -17 -12.5 -28.5t-30.5 -11.5q-16 0 -31 15q-79 86 -197 86q-107 0 -175 -61t-68 -159q0 -107 64.5 -178.5t225.5 -136.5z" />
<glyph unicode="T" horiz-adv-x="929" d="M420 1350h-333q-18 0 -30 12t-12 30q0 17 12 29.5t30 12.5h756q17 0 29.5 -12.5t12.5 -29.5q0 -18 -12.5 -30t-29.5 -12h-333v-1314q0 -19 -13.5 -32t-31.5 -13q-19 0 -32 12.5t-13 32.5v1314z" />
<glyph unicode="U" d="M648 65q167 0 268 114.5t101 312.5v906q0 18 12.5 31.5t30.5 13.5q19 0 32 -13.5t13 -31.5v-910q0 -235 -129 -371t-328 -136t-328 136t-129 371v910q0 18 13 31.5t32 13.5q18 0 31.5 -13.5t13.5 -31.5v-906q0 -198 100.5 -312.5t266.5 -114.5z" />
<glyph unicode="V" d="M648 -27q-16 0 -24 19l-572 1399q-5 15 -5 19q0 18 12.5 30t30.5 12q27 0 40 -32l518 -1275q74 183 248.5 615t269.5 665q5 11 16.5 19t24.5 8q17 0 29.5 -12t12.5 -30q0 -5 -6 -21l-571 -1397q-8 -19 -24 -19z" />
<glyph unicode="W" horiz-adv-x="1985" d="M1400 -12l-408 1267l-406 -1267q-5 -16 -24 -16q-18 0 -23 16l-488 1409q-3 7 -3 16q0 19 13 32t30 13q32 0 43 -34l425 -1258l410 1276q7 19 23 19q17 0 24 -19l409 -1276l424 1257q5 15 16.5 25t26.5 10q19 0 31 -13t12 -32q0 -7 -3 -16l-485 -1409q-6 -16 -24 -16 t-23 16z" />
<glyph unicode="X" horiz-adv-x="1189" d="M594 823l430 607q15 21 40 21q18 0 30.5 -13t12.5 -32q0 -18 -9 -31l-449 -627l493 -692q10 -13 10 -30q0 -18 -13 -30.5t-32 -12.5q-23 0 -40 22l-473 666l-473 -666q-17 -22 -40 -22q-19 0 -32 12.5t-13 30.5q0 17 10 30l493 692l-449 627q-9 13 -9 31q0 19 12.5 32 t30.5 13q25 0 40 -21z" />
<glyph unicode="Y" horiz-adv-x="1179" d="M583 -9q-19 0 -32 12.5t-13 32.5v550l-504 794q-8 14 -8 26q0 19 13.5 32.5t32.5 13.5q23 0 42 -29l469 -747l470 748q17 28 40 28q19 0 32.5 -13.5t13.5 -32.5q0 -12 -7 -24l-504 -796v-550q0 -19 -13 -32t-32 -13z" />
<glyph unicode="Z" horiz-adv-x="979" d="M869 1399l-698 -1315h725q18 0 30 -12.5t12 -29.5q0 -18 -12 -30t-30 -12h-838q-9 0 -15.5 5.5t-6.5 14.5q0 8 5 15l700 1315h-604q-18 0 -30 12t-12 30q0 17 12 29.5t30 12.5h714q9 0 15 -7t6 -16q0 -7 -3 -12z" />
<glyph unicode="[" horiz-adv-x="669" d="M285 -229v1727q0 17 10.5 27.5t26.5 10.5h249q14 0 25 -11t11 -25q0 -15 -11 -25.5t-25 -10.5h-201v-1659h201q14 0 25 -10.5t11 -24.5q0 -15 -11 -25.5t-25 -10.5h-249q-16 0 -26.5 10t-10.5 27z" />
<glyph unicode="\" horiz-adv-x="1036" d="M133 1493l810 -1628q4 -8 4 -21q0 -18 -11.5 -29.5t-28.5 -11.5q-25 0 -37 25l-810 1629q-4 8 -4 21q0 16 11.5 27.5t28.5 11.5q25 0 37 -24z" />
<glyph unicode="]" horiz-adv-x="669" d="M384 1498v-1727q0 -16 -10.5 -26.5t-27.5 -10.5h-249q-15 0 -25.5 10.5t-10.5 25.5q0 14 10.5 24.5t25.5 10.5h202v1659h-202q-15 0 -25.5 10.5t-10.5 25.5q0 14 10.5 25t25.5 11h249q16 0 27 -11t11 -27z" />
<glyph unicode="^" horiz-adv-x="1314" d="M657 1280l-340 -471q-14 -19 -34 -19q-18 0 -30 11.5t-12 29.5q0 16 10 29l385 531q9 12 19 12q13 0 22 -12l388 -534q8 -13 8 -26q0 -18 -12.5 -29.5t-30.5 -11.5q-22 0 -34 17z" />
<glyph unicode="_" horiz-adv-x="1024" d="M24 -209h976q14 0 23.5 -9t9.5 -23q0 -13 -9.5 -21.5t-23.5 -8.5h-976q-14 0 -23.5 8.5t-9.5 21.5q0 14 9.5 23t23.5 9z" />
<glyph unicode="`" horiz-adv-x="822" d="M242 1460q0 14 10.5 25t25.5 11q12 0 26 -12l261 -254q15 -13 15 -29q0 -14 -10.5 -25t-25.5 -11q-13 0 -27 12l-263 256q-12 12 -12 27z" />
<glyph unicode="a" horiz-adv-x="1315" d="M1051 710v215q0 18 12 30.5t30 12.5q17 0 30 -13t13 -30v-892q0 -18 -12.5 -30t-30.5 -12t-30 12t-12 30v216q-59 -126 -177.5 -197t-262.5 -71q-135 0 -250 63.5t-184 178.5t-69 256t69 256t184 179t250 64q144 0 263 -71.5t177 -196.5zM1049 479q0 180 -125.5 301.5 t-302.5 121.5q-179 0 -304.5 -121.5t-125.5 -301.5t125.5 -302t304.5 -122q177 0 302.5 122t125.5 302z" />
<glyph unicode="b" horiz-adv-x="1315" d="M180 33v1469q0 18 12 30.5t30 12.5q17 0 30 -13t13 -30v-792q58 125 177 196.5t263 71.5q135 0 250 -64t184 -179t69 -256t-69 -256t-184 -178.5t-250 -63.5q-145 0 -263.5 71t-176.5 197v-216q0 -18 -12.5 -30t-30.5 -12t-30 12t-12 30zM266 479q0 -119 58 -216.5 t156 -152.5t215 -55q177 0 302.5 122t125.5 302t-125.5 301.5t-302.5 121.5q-179 0 -304 -121.5t-125 -301.5z" />
<glyph unicode="c" horiz-adv-x="1003" d="M108 479q0 141 69.5 256t187 179t255.5 64q172 0 305 -99q15 -11 15 -32q0 -15 -11.5 -26.5t-27.5 -11.5q-14 0 -29 11q-118 80 -252 80q-179 0 -303 -120.5t-124 -300.5t124 -300.5t303 -120.5q142 0 254 80q11 9 27 9t27.5 -11t11.5 -26q0 -20 -17 -32 q-136 -97 -303 -97q-103 0 -197.5 37.5t-163.5 103t-110 158.5t-41 199z" />
<glyph unicode="d" horiz-adv-x="1315" d="M1136 1502v-1469q0 -18 -12.5 -30t-30.5 -12t-30 12t-12 30v216q-59 -126 -177.5 -197t-262.5 -71q-135 0 -250 63.5t-184 178.5t-69 256t69 256t184 179t250 64q144 0 263 -71.5t177 -196.5v792q0 18 12 30.5t30 12.5q17 0 30 -13t13 -30zM1049 479q0 180 -125.5 301.5 t-302.5 121.5q-179 0 -304.5 -121.5t-125.5 -301.5t125.5 -302t304.5 -122q177 0 302.5 122t125.5 302z" />
<glyph unicode="e" horiz-adv-x="1197" d="M620 -19q-138 0 -255 64t-187 179t-70 255q0 139 65.5 254t178.5 180t248 65q131 0 241 -60.5t177 -168.5t74 -241v-2q0 -14 -9 -24t-25 -10h-864q5 -175 126.5 -294.5t300.5 -119.5q205 0 335 169q13 18 33 18q17 0 28.5 -11.5t11.5 -28.5q0 -16 -10 -28 q-155 -196 -399 -196zM198 540h808q-21 160 -132.5 260t-272.5 100q-158 0 -270 -101t-133 -259z" />
<glyph unicode="f" horiz-adv-x="661" d="M548 1484q-114 0 -169.5 -81.5t-55.5 -231.5v-213h279q45 0 45 -38q0 -39 -45 -39h-279v-843q0 -21 -11 -34t-31 -13q-43 0 -43 47v843h-144q-43 0 -43 39q0 38 43 38h144v218q0 186 80 284t227 98q68 0 140.5 -34t72.5 -77q0 -14 -10.5 -24.5t-24.5 -10.5q-15 0 -40 21 q-61 51 -135 51z" />
<glyph unicode="g" horiz-adv-x="1315" d="M198 -349q0 17 11.5 28.5t26.5 11.5q20 0 36 -22q60 -82 147 -127t184 -45q212 0 330 123t118 387v242q-59 -126 -177.5 -197t-262.5 -71q-135 0 -250 63.5t-184 178.5t-69 256t69 256t184 179t250 64q144 0 263 -71.5t177 -196.5v215q0 18 12 30.5t30 12.5q17 0 30 -13 t13 -30v-903q0 -136 -27 -240t-73.5 -171.5t-115 -110.5t-146 -60.5t-172.5 -17.5q-111 0 -216 48t-177 151q-11 17 -11 30zM1049 479q0 180 -125.5 301.5t-302.5 121.5q-179 0 -304.5 -121.5t-125.5 -301.5t125.5 -302t304.5 -122q177 0 302.5 122t125.5 302z" />
<glyph unicode="h" horiz-adv-x="1100" d="M265 1502v-724q49 100 131 150t187 50q142 0 246 -105.5t104 -281.5v-558q0 -18 -12.5 -30t-30.5 -12t-30 12t-12 30v535q0 144 -79 239t-213 95q-132 0 -211.5 -95t-79.5 -238v-536q0 -18 -12.5 -30t-30.5 -12t-30 12t-12 30v1469q0 18 12 30.5t30 12.5q17 0 30 -13 t13 -30z" />
<glyph unicode="i" horiz-adv-x="483" d="M314 1382q0 -32 -20 -52.5t-52 -20.5t-53 20.5t-21 52.5q0 31 21 52t53 21q31 0 51.5 -20.5t20.5 -52.5zM199 33v892q0 18 12.5 30.5t30.5 12.5q17 0 29.5 -13t12.5 -30v-892q0 -18 -12.5 -30t-29.5 -12q-19 0 -31 12t-12 30z" />
<glyph unicode="j" horiz-adv-x="497" d="M-241 -455q0 15 11.5 26t26.5 11q18 0 29 -13q33 -33 80.5 -52.5t94.5 -19.5q120 0 171 79t51 233v1116q0 18 12 30.5t30 12.5q17 0 30 -13t13 -30v-1119q0 -384 -305 -384q-65 0 -127 26t-105 70q-12 14 -12 27zM339 1382q0 -32 -21 -52.5t-53 -20.5t-52 20.5t-20 52.5 t20.5 52.5t51.5 20.5q32 0 53 -21t21 -52z" />
<glyph unicode="k" horiz-adv-x="983" d="M264 1502v-980l543 447q15 11 28 11q17 0 29 -11.5t12 -29.5q0 -16 -17 -29l-488 -390l558 -472q15 -13 15 -31q0 -16 -12.5 -27.5t-29.5 -11.5q-12 0 -29 13l-609 531v-489q0 -18 -12.5 -30t-29.5 -12q-19 0 -31 12t-12 30v1469q0 18 12.5 30.5t30.5 12.5q17 0 29.5 -13 t12.5 -30z" />
<glyph unicode="l" horiz-adv-x="467" d="M191 33v1469q0 18 12 30.5t30 12.5q17 0 30 -13t13 -30v-1469q0 -18 -12.5 -30t-30.5 -12t-30 12t-12 30z" />
<glyph unicode="m" horiz-adv-x="1768" d="M848 33v532q0 144 -79.5 240.5t-212.5 96.5t-212 -94.5t-79 -237.5v-537q0 -18 -12.5 -30t-30.5 -12t-30 12t-12 30v892q0 18 12 30.5t30 12.5q17 0 30 -13t13 -30v-137q98 190 318 190q106 0 194 -62t126 -173q98 235 347 235q68 0 131 -26.5t112 -74.5t78.5 -123 t29.5 -165v-556q0 -18 -12.5 -30t-30.5 -12t-30 12t-12 30v532q0 144 -79.5 240.5t-212.5 96.5q-132 0 -211.5 -96.5t-79.5 -240.5v-532q0 -18 -12.5 -30t-30.5 -12t-30 12t-12 30z" />
<glyph unicode="n" horiz-adv-x="1100" d="M265 925v-137q48 95 130 142.5t188 47.5q142 0 246 -105.5t104 -281.5v-558q0 -18 -12.5 -30t-30.5 -12t-30 12t-12 30v532q0 144 -80 240.5t-212 96.5q-133 0 -212 -94t-79 -237v-538q0 -18 -12.5 -30t-30.5 -12t-30 12t-12 30v892q0 18 12 30.5t30 12.5q17 0 30 -13 t13 -30z" />
<glyph unicode="o" horiz-adv-x="1239" d="M193 479q0 -180 124 -300.5t303 -120.5t303 120.5t124 300.5t-124 300.5t-303 120.5t-303 -120.5t-124 -300.5zM108 479q0 141 69.5 256t187 179t255.5 64t255 -64t187 -179t70 -256t-70 -256t-187 -178.5t-255 -63.5q-103 0 -197.5 37.5t-163.5 103t-110 158.5t-41 199z " />
<glyph unicode="p" horiz-adv-x="1315" d="M180 -539v1464q0 18 12 30.5t30 12.5q17 0 30 -13t13 -30v-215q59 126 177.5 197t262.5 71q135 0 250 -64t184 -179t69 -256t-69 -256t-184 -178.5t-250 -63.5q-144 0 -263 71.5t-177 196.5v-788q0 -17 -13 -29.5t-30 -12.5q-18 0 -30 12.5t-12 29.5zM266 479 q0 -119 58 -216.5t156 -152.5t215 -55q177 0 302.5 122t125.5 302t-125.5 301.5t-302.5 121.5q-179 0 -304 -121.5t-125 -301.5z" />
<glyph unicode="q" horiz-adv-x="1315" d="M1136 925v-1464q0 -17 -13 -29.5t-30 -12.5q-18 0 -30 12.5t-12 29.5v788q-58 -125 -177 -196.5t-263 -71.5q-135 0 -250 63.5t-184 178.5t-69 256t69 256t184 179t250 64q144 0 262.5 -71t177.5 -197v215q0 18 12 30.5t30 12.5q17 0 30 -13t13 -30zM1049 479 q0 180 -125.5 301.5t-302.5 121.5q-179 0 -304.5 -121.5t-125.5 -301.5t125.5 -302t304.5 -122q177 0 302.5 122t125.5 302z" />
<glyph unicode="r" horiz-adv-x="738" d="M180 33v892q0 18 12 30.5t30 12.5q17 0 30 -13t13 -30v-142q99 195 289 195q55 0 101 -16t46 -46q0 -16 -10.5 -26.5t-25.5 -10.5q-5 0 -20 3q-76 21 -110 21q-114 0 -192 -98t-78 -230v-542q0 -18 -12.5 -30t-30.5 -12t-30 12t-12 30z" />
<glyph unicode="s" horiz-adv-x="780" d="M380 -19q-88 0 -163.5 44.5t-123.5 117.5q-9 13 -9 27q0 15 11 26t26 11q19 0 32 -18q99 -133 224 -133q101 0 161.5 58.5t60.5 143.5q0 86 -53 139.5t-182 106.5q-114 47 -173 106.5t-59 142.5q0 100 69 162.5t172 62.5q131 0 210 -95q8 -8 8 -25q0 -14 -10.5 -24.5 t-25.5 -10.5t-27 12q-59 68 -150 68q-69 0 -114.5 -39.5t-45.5 -104.5q0 -71 49.5 -114.5t167.5 -91.5q132 -54 190.5 -125t58.5 -166q0 -121 -80.5 -201t-223.5 -80z" />
<glyph unicode="t" horiz-adv-x="641" d="M323 958h239q17 0 28 -11t11 -27t-11.5 -27.5t-27.5 -11.5h-239v-848q0 -18 -12.5 -30t-29.5 -12q-19 0 -31 12t-12 30v848h-148q-16 0 -27.5 11.5t-11.5 27.5t11 27t28 11h148v237q0 18 12.5 30.5t30.5 12.5q17 0 29.5 -13t12.5 -30v-237z" />
<glyph unicode="u" horiz-adv-x="1110" d="M845 33v137q-48 -95 -130 -142t-188 -47q-142 0 -246 105t-104 282v557q0 18 12.5 30.5t30.5 12.5q17 0 29.5 -13t12.5 -30v-533q0 -143 79.5 -240t212.5 -97q132 0 211.5 94.5t79.5 236.5v539q0 18 12.5 30.5t30.5 12.5q17 0 29.5 -13t12.5 -30v-892q0 -18 -12.5 -30 t-29.5 -12q-19 0 -31 12t-12 30z" />
<glyph unicode="v" horiz-adv-x="963" d="M481 127l349 831q9 23 38 23q17 0 28.5 -11.5t11.5 -29.5q0 -9 -3 -15l-398 -932q-7 -18 -26 -18q-18 0 -25 18l-399 932q-3 6 -3 15q0 18 11.5 29.5t28.5 11.5q29 0 38 -23z" />
<glyph unicode="w" horiz-adv-x="1557" d="M778 835l-325 -843q-7 -19 -24 -19q-18 0 -25 18l-367 935q-2 8 -2 16q0 16 11.5 27.5t27.5 11.5q29 0 38 -24l317 -829l325 838q7 18 24 18t24 -18l325 -838l317 829q9 24 38 24q17 0 28.5 -11.5t11.5 -27.5q0 -7 -3 -16l-368 -935q-7 -18 -24 -18t-24 19z" />
<glyph unicode="x" horiz-adv-x="903" d="M152 963l300 -403l300 403q11 15 32 15q17 0 28 -11.5t11 -28.5q0 -15 -8 -26l-310 -414l340 -451q9 -12 9 -24q0 -17 -11.5 -28.5t-28.5 -11.5q-22 0 -36 17l-326 433l-327 -433q-14 -17 -36 -17q-17 0 -28.5 11.5t-11.5 28.5q0 12 9 24l340 451l-310 414q-8 11 -8 26 q0 17 11 28.5t28 11.5q22 0 33 -15z" />
<glyph unicode="y" horiz-adv-x="974" d="M223 -541l219 541l-373 924q-3 9 -3 15q0 17 12.5 29.5t30.5 12.5q25 0 38 -31l340 -838l340 838q13 31 39 31q18 0 30.5 -12.5t12.5 -29.5q0 -6 -3 -15l-605 -1497q-5 -11 -17 -19.5t-25 -8.5q-17 0 -28.5 12.5t-11.5 29.5q0 8 4 18z" />
<glyph unicode="z" horiz-adv-x="808" d="M60 17q0 6 5 13l497 851h-416q-16 0 -27 11t-11 28q0 16 11 27t27 11h528q8 0 13 -5t5 -13t-5 -13l-501 -849h531q17 0 28 -11t11 -28t-11 -28t-28 -11h-638q-19 0 -19 17z" />
<glyph unicode="{" horiz-adv-x="790" d="M183 635q0 10 14 16q96 39 142 110t46 180v245q0 165 67 257.5t208 92.5h26q14 0 25 -11t11 -26q0 -14 -11 -25t-25 -11q-216 0 -216 -254v-197q0 -63 -5.5 -108.5t-22 -99t-54.5 -96t-96 -73.5q58 -31 95.5 -74.5t54.5 -97t22.5 -99t5.5 -106.5v-199q0 -253 213 -253 q17 0 28 -10t11 -26q0 -14 -11 -25t-25 -11h-26q-140 0 -207.5 92.5t-67.5 255.5v246q0 108 -45.5 178t-142.5 110q-14 6 -14 19z" />
<glyph unicode="|" horiz-adv-x="572" d="M247 -380v1924q0 17 11 28.5t28 11.5q16 0 28 -12t12 -28v-1924q0 -17 -11.5 -28t-28.5 -11t-28 11t-11 28z" />
<glyph unicode="}" horiz-adv-x="790" d="M607 635q0 -13 -13 -19q-97 -40 -142.5 -110t-45.5 -178v-246q0 -163 -68 -255.5t-208 -92.5h-26q-14 0 -24.5 11t-10.5 25q0 16 11 26t28 10q213 0 213 253v199q0 61 5.5 106.5t22.5 99t54.5 97t95.5 74.5q-58 31 -96 73.5t-54.5 96t-22 99t-5.5 108.5v197 q0 254 -217 254q-14 0 -24.5 11t-10.5 25q0 15 10.5 26t24.5 11h26q141 0 208.5 -92.5t67.5 -257.5v-245q0 -109 46 -180t142 -110q13 -6 13 -16z" />
<glyph unicode="~" horiz-adv-x="1266" d="M654 714q47 -40 71.5 -58t61 -33t76.5 -15q126 0 184 172q11 35 39 35q18 0 30 -13t12 -31q0 -6 -1 -9q-27 -108 -94 -170t-166 -62q-63 0 -117.5 23.5t-114.5 74.5q-62 53 -89.5 73.5t-66 37t-78.5 16.5q-71 0 -117 -48.5t-67 -123.5q-9 -36 -40 -36q-16 0 -28.5 13 t-12.5 30q0 3 2 11q30 107 95.5 169.5t163.5 62.5q65 0 123.5 -27.5t133.5 -91.5z" />
<glyph unicode="&#xa1;" horiz-adv-x="606" d="M348 562v-1009q0 -20 -13 -33t-32 -13t-32 13t-13 33v1009q0 20 13 32.5t32 12.5t32 -12.5t13 -32.5zM378 901q0 -32 -21 -53t-54 -21q-32 0 -53.5 21t-21.5 53t21.5 53t53.5 21q33 0 54 -21t21 -53z" />
<glyph unicode="&#xa2;" horiz-adv-x="1003" d="M108 479q0 132 64.5 244.5t173 180t237.5 76.5v132q0 14 10 25t25 11q14 0 25 -11t11 -25v-130q156 -12 271 -96q18 -13 18 -32q0 -16 -11 -27.5t-26 -11.5t-44 20q-101 70 -238 70q-116 0 -215.5 -56.5t-157.5 -154.5t-58 -215q0 -178 125 -301.5t302 -123.5 q71 0 139.5 17.5t104.5 53.5q24 16 38 16q17 0 28 -11t11 -28q0 -19 -19 -33q-124 -88 -278 -93v-142q0 -14 -11 -25t-25 -11q-15 0 -25.5 11t-10.5 25v143q-193 18 -328.5 161.5t-135.5 340.5z" />
<glyph unicode="&#xa3;" horiz-adv-x="1210" d="M223 23q0 9 6 16q160 213 160 476v142h-204q-13 0 -22 9.5t-9 22.5t9 22t22 9h204v356q0 166 93 274t262 108q183 0 294 -138q11 -14 11 -29t-12 -26.5t-28 -11.5t-32 18q-92 105 -226 105q-131 0 -201.5 -87t-70.5 -221v-348h372q13 0 22 -9t9 -22t-9 -22.5t-22 -9.5 h-372v-129q0 -131 -29 -234.5t-93 -211.5h701q17 0 29 -12t12 -29t-12 -29t-29 -12h-812q-9 0 -16 7t-7 16z" />
<glyph unicode="&#xa4;" horiz-adv-x="1431" d="M270 680q0 157 100 279l-148 148q-24 22 -24 42t12.5 31.5t31.5 11.5q16 0 38 -22l150 -150q124 105 286 105q161 0 285 -105l149 149q23 23 38 23q22 0 33 -12.5t11 -32.5q0 -17 -22 -37l-150 -151q102 -125 102 -279q0 -158 -102 -283l147 -147q25 -25 25 -44 q0 -17 -11.5 -28.5t-29.5 -11.5q-14 0 -34 13t-23 26l-133 133q-122 -106 -285 -106q-160 0 -286 106l-148 -150q-22 -22 -43 -22q-18 0 -29.5 12t-11.5 30q0 17 25 42l149 148q-102 125 -102 282zM351 680q0 -155 105.5 -262t259.5 -107q153 0 259 107t106 262 q0 154 -106 260.5t-259 106.5q-154 0 -259.5 -106.5t-105.5 -260.5z" />
<glyph unicode="&#xa5;" horiz-adv-x="1192" d="M163 417h388v161h-388q-13 0 -22 8t-9 20q0 13 9 21.5t22 8.5h356l-472 744q-8 14 -8 26q0 19 13.5 32.5t32.5 13.5q9 0 17 -3.5t16 -13t11.5 -14.5t12 -19t9.5 -16l445 -710l470 748q17 28 40 28q19 0 32.5 -13.5t13.5 -32.5q0 -12 -7 -24l-472 -746h356q14 0 22.5 -8.5 t8.5 -21.5t-8.5 -20.5t-22.5 -7.5h-388v-161h388q14 0 22.5 -8.5t8.5 -21.5t-8.5 -21t-22.5 -8h-388v-322q0 -19 -13 -32t-32 -13q-20 0 -32.5 12.5t-12.5 32.5v322h-388q-13 0 -22 8t-9 21t9 21.5t22 8.5z" />
<glyph unicode="&#xa6;" horiz-adv-x="572" d="M247 781v599q0 17 11 28t28 11t28.5 -11t11.5 -28v-599q0 -17 -11.5 -28t-28.5 -11t-28 11t-11 28zM247 -178v600q0 17 11 28t28 11t28.5 -11t11.5 -28v-600q0 -17 -11.5 -28t-28.5 -11t-28 11t-11 28z" />
<glyph unicode="&#xa7;" horiz-adv-x="1061" d="M313 -81q0 15 10.5 26t26.5 11t31 -15q70 -70 160 -70q86 0 140.5 44.5t54.5 119.5q0 74 -62 131t-188 116q-142 66 -209.5 150.5t-67.5 202.5q0 121 83 206t221 94q-138 66 -199.5 132.5t-61.5 155.5q0 105 74.5 170t197.5 65q131 0 221 -99q8 -8 8 -24q0 -17 -10.5 -27 t-26.5 -10q-13 0 -29 14q-74 72 -159 72q-86 0 -139 -43.5t-53 -116.5q0 -72 61.5 -128.5t187.5 -114.5q141 -65 208.5 -150.5t67.5 -203.5q0 -124 -81.5 -208.5t-220.5 -92.5q139 -67 200 -134t61 -155q0 -106 -76 -172.5t-199 -66.5q-129 0 -220 93q-12 12 -12 28z M290 631q0 -108 71.5 -177.5t174.5 -69.5q102 0 173 69.5t71 177.5t-71 177.5t-173 69.5q-103 0 -174.5 -69.5t-71.5 -177.5z" />
<glyph unicode="&#xa8;" horiz-adv-x="822" d="M219 1265q-27 0 -45.5 18.5t-18.5 45.5q0 26 18.5 45t45.5 19q26 0 45.5 -19t19.5 -45q0 -27 -19 -45.5t-46 -18.5zM603 1265q-27 0 -45.5 18.5t-18.5 45.5q0 26 18.5 45t45.5 19q26 0 45.5 -19t19.5 -45q0 -27 -19 -45.5t-46 -18.5z" />
<glyph unicode="&#xa9;" horiz-adv-x="1726" d="M129 717q0 121 37.5 234t105.5 204t158.5 159.5t202 106t230.5 37.5q197 0 366 -99t268 -270t99 -372q0 -151 -58.5 -288.5t-157 -236.5t-234 -158t-283.5 -59t-284 59t-234.5 158t-157 236.5t-58.5 288.5zM188 717q0 -139 54 -265.5t145 -218t215.5 -146t260.5 -54.5 t260.5 54.5t215 146t144.5 218t54 265.5t-54 265.5t-144.5 218t-215 146t-260.5 54.5t-261 -54.5t-215.5 -146t-144.5 -218t-54 -265.5zM501 721q0 168 115 281.5t277 113.5q121 0 223 -72q17 -12 17 -29q0 -13 -10 -22.5t-24 -9.5q-12 0 -26 8q-86 59 -179 59 q-132 0 -224.5 -94t-92.5 -235t92.5 -235t224.5 -94q100 0 179 57q15 10 24 10q14 0 24.5 -10t10.5 -24q0 -18 -15 -28q-103 -71 -224 -71q-162 0 -277 113.5t-115 281.5z" />
<glyph unicode="&#xaa;" horiz-adv-x="913" d="M810 1384v-636q0 -16 -11.5 -27t-26.5 -11q-16 0 -27 11t-11 27v130q-45 -80 -128 -129t-178 -49q-150 0 -258 106.5t-108 260.5q0 153 108 259t258 106q95 0 178 -49t128 -129v130q0 15 11 26.5t27 11.5q14 0 26 -12t12 -26zM731 1067q0 122 -87.5 209t-208.5 87 q-122 0 -209.5 -86.5t-87.5 -209.5t87.5 -210.5t209.5 -87.5q121 0 208.5 87.5t87.5 210.5z" />
<glyph unicode="&#xab;" horiz-adv-x="1202" d="M606 913l-365 -274l365 -274q16 -11 16 -30q0 -15 -10.5 -25.5t-25.5 -10.5q-12 0 -28 13l-410 309q-10 7 -10 18t10 18l410 309q16 13 28 13q15 0 25.5 -10.5t10.5 -25.5q0 -19 -16 -30zM1034 913l-365 -274l365 -274q16 -11 16 -30q0 -15 -10.5 -25.5t-25.5 -10.5 q-12 0 -28 13l-409 309q-11 7 -11 18t11 18l409 309q16 13 28 13q15 0 25.5 -10.5t10.5 -25.5q0 -19 -16 -30z" />
<glyph unicode="&#xac;" horiz-adv-x="1266" d="M1030 383v421h-871q-17 0 -27.5 11t-10.5 27q0 15 11 26.5t27 11.5h918q17 0 28.5 -11.5t11.5 -28.5v-457q0 -18 -13 -30.5t-31 -12.5q-19 0 -31 12t-12 31z" />
<glyph unicode="&#xad;" horiz-adv-x="831" d="M680 642h-528q-17 0 -28 10t-11 27t11 27.5t28 10.5h528q17 0 28 -10.5t11 -27.5t-11 -27t-28 -10z" />
<glyph unicode="&#xae;" horiz-adv-x="1726" d="M129 717q0 121 37.5 234t105.5 204t158.5 159.5t202 106t230.5 37.5q197 0 366 -99t268 -270t99 -372q0 -151 -58.5 -288.5t-157 -236.5t-234 -158t-283.5 -59t-284 59t-234.5 158t-157 236.5t-58.5 288.5zM188 717q0 -139 54 -265.5t145 -218t215.5 -146t260.5 -54.5 t260.5 54.5t215 146t144.5 218t54 265.5t-54 265.5t-144.5 218t-215 146t-260.5 54.5t-261 -54.5t-215.5 -146t-144.5 -218t-54 -265.5zM931 690l244 -306q8 -11 8 -24q0 -17 -11 -27.5t-28 -10.5q-19 0 -34 20l-272 369q-5 7 -5 12q0 6 4.5 10.5t11.5 4.5h4 q109 1 163.5 42.5t54.5 114.5t-53 115.5t-141 42.5h-119v-689q0 -17 -11.5 -28t-28.5 -11t-28 11t-11 28v716q0 13 9 22.5t22 9.5h169q119 0 190.5 -59.5t71.5 -157.5q0 -33 -10.5 -65t-33 -62.5t-65.5 -51.5t-101 -26z" />
<glyph unicode="&#xaf;" horiz-adv-x="1024" d="M24 1359h976q14 0 23.5 -9t9.5 -22q0 -14 -9.5 -23t-23.5 -9h-976q-14 0 -23.5 9t-9.5 23q0 13 9.5 22t23.5 9z" />
<glyph unicode="&#xb0;" horiz-adv-x="852" d="M682 1202q0 -106 -75 -180.5t-181 -74.5t-181 74.5t-75 180.5t75 181t181 75t181 -75t75 -181zM239 1202q0 -81 54.5 -136t132.5 -55q79 0 133.5 55t54.5 136q0 82 -54.5 137.5t-133.5 55.5q-78 0 -132.5 -56t-54.5 -137z" />
<glyph unicode="&#xb1;" horiz-adv-x="1266" d="M1060 119h-856q-17 0 -28 10.5t-11 27.5t11 27.5t28 10.5h856q17 0 28 -10.5t11 -27.5t-11 -27.5t-28 -10.5zM589 377v400h-392q-17 0 -27.5 10t-10.5 27t11 27.5t28 10.5h391v403q0 19 12.5 32t32.5 13t32.5 -13t12.5 -32v-403h390q17 0 28 -10.5t11 -27.5t-11 -27 t-28 -10h-390v-400q0 -19 -12.5 -32t-32.5 -13t-32.5 13t-12.5 32z" />
<glyph unicode="&#xb2;" horiz-adv-x="800" d="M118 515q0 9 5 14l335 419q119 148 119 253q0 84 -53 136t-146 52q-94 0 -182 -120q-11 -14 -29 -14q-12 0 -21.5 9.5t-9.5 22.5t8 24q45 64 107.5 103t129.5 39q127 0 197.5 -72t70.5 -181q0 -123 -129 -284l-288 -355h409q13 0 23.5 -10.5t10.5 -23.5t-10 -22t-24 -9 h-503q-8 0 -14 5.5t-6 13.5z" />
<glyph unicode="&#xb3;" horiz-adv-x="800" d="M137 1400q0 14 10 24t24 10h433q9 0 16 -7t7 -16t-5 -16l-222 -342q133 -31 199 -109t66 -183q0 -54 -19.5 -105t-56.5 -92.5t-97.5 -67t-134.5 -25.5q-73 0 -142 33t-119 100q-9 11 -9 25t10.5 24t25.5 10q18 0 29 -15q40 -54 95 -81.5t111 -27.5q102 0 166.5 64.5 t64.5 161.5t-70 160t-195 76q-20 4 -20 22q0 8 14 28l206 315h-353q-14 0 -24 10t-10 24z" />
<glyph unicode="&#xb4;" horiz-adv-x="822" d="M581 1460q0 -14 -15 -29l-258 -248q-16 -16 -32 -16q-13 0 -23.5 10.5t-10.5 24.5q0 17 14 29l260 250q13 13 31 13q13 0 23.5 -10t10.5 -24z" />
<glyph unicode="&#xb5;" horiz-adv-x="1174" d="M176 -362v1287q0 18 12.5 30.5t30.5 12.5q17 0 29.5 -13t12.5 -30v-536q0 -144 95 -240t233 -96q136 0 230 99t94 239v534q0 18 12 30.5t30 12.5q17 0 30 -13t13 -30v-892q0 -18 -12.5 -30t-30.5 -12t-30 12t-12 30v145q-49 -96 -139 -149.5t-199 -53.5 q-96 0 -180.5 49.5t-133.5 136.5v-523q0 -17 -12.5 -29.5t-29.5 -12.5q-19 0 -31 12t-12 30z" />
<glyph unicode="&#xb6;" horiz-adv-x="1163" d="M668 -240v908h-82q-78 0 -148 14t-131.5 44.5t-105.5 75t-69.5 109t-25.5 142.5q0 97 37.5 171.5t103.5 119.5t150 67.5t183 22.5h324q16 0 27 -11t11 -27v-1636q0 -16 -11.5 -27t-26.5 -11q-16 0 -27 11t-11 27v1601h-123v-1601q0 -16 -11 -27t-26 -11q-16 0 -27 11 t-11 27z" />
<glyph unicode="&#xb7;" horiz-adv-x="601" d="M225 628q0 32 21.5 53t53.5 21t53.5 -21t21.5 -53t-21.5 -53.5t-53.5 -21.5t-53.5 21.5t-21.5 53.5z" />
<glyph unicode="&#xb8;" horiz-adv-x="822" d="M186 -410q0 14 8 23t20 9q14 0 25 -9q54 -39 107 -39q73 0 111 41t38 97q0 61 -50 105t-123 52q-18 2 -18 16q0 9 3 15l57 104h69l-49 -92q92 -25 138 -80.5t46 -119.5q0 -33 -11.5 -66t-35.5 -64t-69 -50t-104 -19q-46 0 -104 23t-58 54z" />
<glyph unicode="&#xb9;" horiz-adv-x="800" d="M170 1262q0 19 18 30l262 157q14 9 23 9q11 0 18.5 -7t7.5 -17v-911q0 -16 -11.5 -26.5t-26.5 -10.5q-17 0 -27.5 10.5t-10.5 26.5v831l-205 -121q-7 -5 -16 -5q-13 0 -22.5 10t-9.5 24z" />
<glyph unicode="&#xba;" horiz-adv-x="919" d="M821 1085q0 -146 -107 -250t-254 -104t-255 104t-108 250q0 145 108 250t255 105q146 0 253.5 -105t107.5 -250zM173 1085q0 -119 83.5 -202t203.5 -83q119 0 202.5 83t83.5 202q0 118 -83.5 202t-202.5 84q-120 0 -203.5 -84t-83.5 -202z" />
<glyph unicode="&#xbb;" horiz-adv-x="1202" d="M957 639l-365 274q-15 10 -15 30q0 15 10 25.5t25 10.5q12 0 28 -13l410 -309q10 -7 10 -18t-10 -18l-410 -309q-16 -13 -28 -13q-15 0 -25 10.5t-10 25.5q0 20 15 30zM529 639l-365 274q-16 11 -16 30q0 15 10.5 25.5t25.5 10.5q12 0 28 -13l410 -309q10 -7 10 -18 t-10 -18l-410 -309q-16 -13 -28 -13q-15 0 -25.5 10.5t-10.5 25.5q0 19 16 30z" />
<glyph unicode="&#xbc;" horiz-adv-x="1952" d="M534 25l742 1398q11 20 31 20q13 0 23.5 -10t10.5 -23q0 -10 -4 -18l-742 -1398q-11 -21 -31 -21q-14 0 -24.5 10t-10.5 23q0 9 5 19zM170 1262q0 19 18 30l262 157q14 9 23 9q11 0 18.5 -7t7.5 -17v-911q0 -16 -11.5 -26.5t-26.5 -10.5q-17 0 -27.5 10.5t-10.5 26.5v831 l-205 -121q-7 -5 -16 -5q-13 0 -22.5 10t-9.5 24zM1142 227q0 12 5 17l499 719q9 13 21 13q10 0 17 -7.5t7 -17.5v-677h89q13 0 22.5 -9.5t9.5 -23.5t-9.5 -23.5t-22.5 -9.5h-89v-168q0 -16 -11 -26.5t-26 -10.5t-26 10.5t-11 26.5v168h-456q-19 0 -19 19zM1245 274h372v545 z" />
<glyph unicode="&#xbd;" horiz-adv-x="1952" d="M534 25l742 1398q11 20 31 20q13 0 23.5 -10t10.5 -23q0 -10 -4 -18l-742 -1398q-11 -21 -31 -21q-14 0 -24.5 10t-10.5 23q0 9 5 19zM170 1262q0 19 18 30l262 157q14 9 23 9q11 0 18.5 -7t7.5 -17v-911q0 -16 -11.5 -26.5t-26.5 -10.5q-17 0 -27.5 10.5t-10.5 26.5v831 l-205 -121q-7 -5 -16 -5q-13 0 -22.5 10t-9.5 24zM1231 31q0 9 5 14l335 419q119 148 119 253q0 84 -53 135.5t-146 51.5q-94 0 -182 -120q-10 -13 -29 -13q-12 0 -21.5 9.5t-9.5 22.5q0 12 8 23q45 64 107.5 103.5t129.5 39.5q127 0 197.5 -72t70.5 -181q0 -123 -129 -284 l-287 -355h408q14 0 24 -10.5t10 -23.5t-10 -22.5t-24 -9.5h-503q-8 0 -14 6t-6 14z" />
<glyph unicode="&#xbe;" horiz-adv-x="1952" d="M534 25l742 1398q11 20 31 20q13 0 23.5 -10t10.5 -23q0 -10 -4 -18l-742 -1398q-11 -21 -31 -21q-14 0 -24.5 10t-10.5 23q0 9 5 19zM1142 226q0 12 5 17l499 719q9 13 21 13q10 0 17 -7.5t7 -17.5v-677h89q13 0 22.5 -9.5t9.5 -23.5t-9.5 -23.5t-22.5 -9.5h-89v-168 q0 -16 -11 -26.5t-26 -10.5t-26 10.5t-11 26.5v168h-456q-19 0 -19 19zM1245 273h372v545zM137 1400q0 14 10 24t24 10h433q9 0 16 -7t7 -16t-5 -16l-222 -342q133 -31 199 -109t66 -183q0 -54 -19.5 -105t-56.5 -92.5t-97.5 -67t-134.5 -25.5q-73 0 -142 33t-119 100 q-9 11 -9 25t10.5 24t25.5 10q18 0 29 -15q40 -54 95 -81.5t111 -27.5q102 0 166.5 64.5t64.5 161.5t-70 160t-195 76q-20 4 -20 22q0 8 14 28l206 315h-353q-14 0 -24 10t-10 24z" />
<glyph unicode="&#xbf;" horiz-adv-x="1007" d="M872 -313q0 -22 -14 -34q-171 -161 -371 -161q-171 0 -278 89t-107 230q0 246 343 392q98 42 142.5 86t44.5 110q0 61 -41.5 97t-101.5 36q-41 0 -99 -34q-18 -9 -21 -9q-15 0 -25.5 11t-10.5 25q0 18 13 29q61 52 154 52t156 -58t63 -148q0 -74 -51 -140.5t-150 -108.5 q-171 -72 -250 -153t-79 -188q0 -103 78 -172t222 -69q85 0 171 39t142 103q13 16 31 16q17 0 28 -11.5t11 -28.5zM594 900q0 -32 -21.5 -53.5t-53.5 -21.5t-53.5 21.5t-21.5 53.5t21.5 53.5t53.5 21.5t53.5 -21.5t21.5 -53.5z" />
<glyph unicode="&#xc0;" d="M648 1454q17 0 25 -17l570 -1394q5 -10 5 -19q0 -18 -12 -30t-29 -12q-30 0 -41 27l-157 390h-721l-158 -389q-12 -29 -40 -29q-18 0 -30.5 12t-12.5 30q0 3 1.5 8t2.5 9l1 4l571 1393q7 17 25 17zM648 1288l-330 -812h659zM413 1878q0 14 10.5 25t25.5 11q13 0 26 -12 l261 -254q15 -13 15 -29q0 -14 -10.5 -25t-25.5 -11q-14 0 -27 11l-263 256q-12 12 -12 28z" />
<glyph unicode="&#xc1;" d="M648 1454q17 0 25 -17l570 -1394q5 -10 5 -19q0 -18 -12 -30t-29 -12q-30 0 -41 27l-157 390h-721l-158 -389q-12 -29 -40 -29q-18 0 -30.5 12t-12.5 30q0 3 1.5 8t2.5 9l1 4l571 1393q7 17 25 17zM648 1288l-330 -812h659zM912 1878q0 -16 -14 -30l-258 -247 q-16 -16 -32 -16q-13 0 -24 10.5t-11 24.5q0 16 15 29l260 249q14 14 31 14q13 0 23 -10t10 -24z" />
<glyph unicode="&#xc2;" d="M648 1454q17 0 25 -17l570 -1394q5 -10 5 -19q0 -18 -12 -30t-29 -12q-30 0 -41 27l-157 390h-721l-158 -389q-12 -29 -40 -29q-18 0 -30.5 12t-12.5 30q0 3 1.5 8t2.5 9l1 4l571 1393q7 17 25 17zM648 1288l-330 -812h659zM648 1817l-211 -218q-11 -13 -28 -13 q-15 0 -25 10t-10 25q0 18 11 29l242 243q12 12 21 12q13 0 23 -12l241 -245q13 -13 13 -27q0 -15 -10 -25t-25 -10q-19 0 -28 10z" />
<glyph unicode="&#xc3;" d="M648 1454q17 0 25 -17l570 -1394q5 -10 5 -19q0 -18 -12 -30t-29 -12q-30 0 -41 27l-157 390h-721l-158 -389q-12 -29 -40 -29q-18 0 -30.5 12t-12.5 30q0 3 1.5 8t2.5 9l1 4l571 1393q7 17 25 17zM648 1288l-330 -812h659zM507 1847q74 0 135 -54l28 -25q32 -29 56 -42 t56 -13q42 0 63.5 22t37.5 61q12 27 36 27q14 0 24.5 -10t10.5 -24q0 -4 -3 -16q-19 -61 -62.5 -95t-97.5 -34q-74 0 -134 51l-36 30q-23 19 -35.5 28t-32 17t-39.5 8q-33 0 -55 -17.5t-30 -38t-21 -38t-30 -17.5q-13 0 -24 10t-11 24q0 7 4 19q20 59 63 93t97 34z" />
<glyph unicode="&#xc4;" d="M648 1454q17 0 25 -17l570 -1394q5 -10 5 -19q0 -18 -12 -30t-29 -12q-30 0 -41 27l-157 390h-721l-158 -389q-12 -29 -40 -29q-18 0 -30.5 12t-12.5 30q0 3 1.5 8t2.5 9l1 4l571 1393q7 17 25 17zM648 1288l-330 -812h659zM457 1682q-27 0 -46 19t-19 46q0 26 19 44.5 t46 18.5q26 0 45 -18.5t19 -44.5q0 -27 -19 -46t-45 -19zM841 1682q-27 0 -46 19t-19 46q0 26 19 44.5t46 18.5q26 0 45 -18.5t19 -44.5q0 -27 -19 -46t-45 -19z" />
<glyph unicode="&#xc5;" d="M648 1454q17 0 25 -17l570 -1394q5 -10 5 -19q0 -18 -12 -30t-29 -12q-30 0 -41 27l-157 390h-721l-158 -389q-12 -29 -40 -29q-18 0 -30.5 12t-12.5 30q0 3 1.5 8t2.5 9l1 4l571 1393q7 17 25 17zM648 1288l-330 -812h659zM463 1747q0 77 54 129t131 52t132 -52t55 -129 t-55 -129t-132 -52t-131 52t-54 129zM525 1747q0 -52 35.5 -87.5t87.5 -35.5t87.5 35.5t35.5 87.5q0 51 -35.5 87t-87.5 36t-87.5 -36t-35.5 -87z" />
<glyph unicode="&#xc6;" horiz-adv-x="1662" d="M888 43v334h-541l-212 -369q-15 -25 -40 -25q-19 0 -31 11.5t-12 29.5q0 13 10 30l781 1353q16 27 47 27h617q18 0 30 -12.5t12 -29.5q0 -18 -12 -30t-30 -12h-530v-501h476q17 0 29 -12t12 -29t-12 -29t-29 -12h-476v-683h552q18 0 30 -12.5t12 -29.5q0 -18 -12 -30 t-30 -12h-598q-19 0 -31 12t-12 31zM888 452v865l-498 -865h498z" />
<glyph unicode="&#xc7;" horiz-adv-x="1473" d="M610 -410q0 13 9.5 22t21.5 9q13 0 23 -7q52 -40 106 -40q68 0 106 42t38 98q0 59 -49.5 103t-119.5 52q-17 2 -17 16q0 7 4 15l42 81q-137 16 -257.5 78.5t-208 158.5t-138 225.5t-50.5 273.5q0 206 100.5 375.5t271.5 265t374 95.5q279 0 494 -184q12 -10 12 -31 q0 -17 -12.5 -30.5t-29.5 -13.5q-16 0 -28 10q-196 165 -436 165q-133 0 -254 -50t-209.5 -135.5t-140.5 -207.5t-52 -259q0 -184 88.5 -335.5t239 -237t328.5 -85.5q249 0 436 163q12 10 26 10q19 0 31.5 -12.5t12.5 -31.5t-14 -30q-210 -182 -517 -182l-33 -64 q92 -25 138 -80.5t46 -119.5q0 -33 -11.5 -66t-35.5 -64t-69 -50t-104 -19q-50 0 -106 24t-56 53z" />
<glyph unicode="&#xc8;" horiz-adv-x="966" d="M191 43v1347q0 19 13 31.5t32 12.5h556q17 0 29.5 -12.5t12.5 -29.5q0 -18 -12.5 -30t-29.5 -12h-510v-503h456q17 0 29 -12t12 -29t-12 -29t-29 -12h-456v-681h531q17 0 29.5 -12.5t12.5 -29.5q0 -18 -12.5 -30t-29.5 -12h-577q-19 0 -32 12t-13 31zM327 1878 q0 15 10 25.5t25 10.5q14 0 27 -12l261 -254q15 -13 15 -29q0 -14 -10.5 -25t-25.5 -11q-14 0 -27 11l-263 256q-12 12 -12 28z" />
<glyph unicode="&#xc9;" horiz-adv-x="966" d="M191 43v1347q0 19 13 31.5t32 12.5h556q17 0 29.5 -12.5t12.5 -29.5q0 -18 -12.5 -30t-29.5 -12h-510v-503h456q17 0 29 -12t12 -29t-12 -29t-29 -12h-456v-681h531q17 0 29.5 -12.5t12.5 -29.5q0 -18 -12.5 -30t-29.5 -12h-577q-19 0 -32 12t-13 31zM678 1878 q0 -16 -14 -30l-258 -247q-16 -16 -32 -16q-13 0 -24 10.5t-11 24.5q0 17 14 29l260 249q14 14 31 14q14 0 24 -10t10 -24z" />
<glyph unicode="&#xca;" horiz-adv-x="966" d="M191 43v1347q0 19 13 31.5t32 12.5h556q17 0 29.5 -12.5t12.5 -29.5q0 -18 -12.5 -30t-29.5 -12h-510v-503h456q17 0 29 -12t12 -29t-12 -29t-29 -12h-456v-681h531q17 0 29.5 -12.5t12.5 -29.5q0 -18 -12.5 -30t-29.5 -12h-577q-19 0 -32 12t-13 31zM507 1817l-211 -218 q-11 -13 -29 -13q-15 0 -25 10t-10 25q0 17 12 29l241 243q12 12 22 12q12 0 22 -12l242 -245q12 -12 12 -27t-9.5 -25t-24.5 -10q-19 0 -28 10z" />
<glyph unicode="&#xcb;" horiz-adv-x="966" d="M191 43v1347q0 19 13 31.5t32 12.5h556q17 0 29.5 -12.5t12.5 -29.5q0 -18 -12.5 -30t-29.5 -12h-510v-503h456q17 0 29 -12t12 -29t-12 -29t-29 -12h-456v-681h531q17 0 29.5 -12.5t12.5 -29.5q0 -18 -12.5 -30t-29.5 -12h-577q-19 0 -32 12t-13 31zM310 1682 q-27 0 -45.5 19t-18.5 46q0 26 18.5 44.5t45.5 18.5q26 0 45.5 -18.5t19.5 -44.5q0 -27 -19.5 -46t-45.5 -19zM694 1682q-27 0 -45.5 19t-18.5 46q0 26 18.5 44.5t45.5 18.5q26 0 45.5 -18.5t19.5 -44.5q0 -27 -19.5 -46t-45.5 -19z" />
<glyph unicode="&#xcc;" horiz-adv-x="521" d="M305 1398v-1362q0 -19 -13 -32t-32 -13q-20 0 -32.5 12.5t-12.5 32.5v1362q0 18 13 31.5t32 13.5t32 -13.5t13 -31.5zM-4 1878q0 14 10.5 25t25.5 11q12 0 26 -12l261 -254q15 -13 15 -29q0 -14 -10.5 -25t-25.5 -11q-14 0 -27 11l-263 256q-12 12 -12 28z" />
<glyph unicode="&#xcd;" horiz-adv-x="521" d="M305 1398v-1362q0 -19 -13 -32t-32 -13q-20 0 -32.5 12.5t-12.5 32.5v1362q0 18 13 31.5t32 13.5t32 -13.5t13 -31.5zM524 1878q0 -16 -14 -30l-258 -247q-16 -16 -32 -16q-13 0 -24 10.5t-11 24.5q0 16 15 29l260 249q14 14 30 14q14 0 24 -10t10 -24z" />
<glyph unicode="&#xce;" horiz-adv-x="521" d="M305 1398v-1362q0 -19 -13 -32t-32 -13q-20 0 -32.5 12.5t-12.5 32.5v1362q0 18 13 31.5t32 13.5t32 -13.5t13 -31.5zM260 1817l-211 -218q-11 -13 -29 -13q-15 0 -24.5 10t-9.5 25q0 18 11 29l242 243q12 12 21 12q13 0 23 -12l241 -245q13 -13 13 -27q0 -15 -10 -25 t-25 -10q-19 0 -28 10z" />
<glyph unicode="&#xcf;" horiz-adv-x="521" d="M305 1398v-1362q0 -19 -13 -32t-32 -13q-20 0 -32.5 12.5t-12.5 32.5v1362q0 18 13 31.5t32 13.5t32 -13.5t13 -31.5zM69 1682q-27 0 -46 19t-19 46q0 26 19 44.5t46 18.5q26 0 45 -18.5t19 -44.5q0 -27 -19 -46t-45 -19zM453 1682q-27 0 -46 19t-19 46q0 26 19 44.5 t46 18.5q26 0 45 -18.5t19 -44.5q0 -27 -19 -46t-45 -19z" />
<glyph unicode="&#xd0;" horiz-adv-x="1390" d="M13 716q0 15 10.5 25t25.5 10h127v642q0 17 11.5 29t29.5 12h317q153 0 288.5 -51.5t234.5 -143.5t156.5 -227.5t57.5 -294.5q0 -212 -98.5 -376.5t-266 -252.5t-372.5 -88h-317q-18 0 -29.5 11.5t-11.5 29.5v640h-127q-15 0 -25.5 9.5t-10.5 25.5zM266 681v-597h268 q184 0 330.5 77t231.5 222t85 334t-85 334t-231.5 222t-330.5 77h-268v-599h377q15 0 25.5 -10t10.5 -25q0 -16 -10.5 -25.5t-25.5 -9.5h-377z" />
<glyph unicode="&#xd1;" horiz-adv-x="1484" d="M239 1446l964 -1275v1227q0 18 13 31.5t32 13.5q18 0 31.5 -13.5t13.5 -31.5v-1396q0 -10 -8 -18t-19 -8q-13 0 -22 12l-962 1275v-1227q0 -19 -13 -32t-32 -13q-20 0 -33 13t-13 32v1395q0 10 7.5 17.5t18.5 7.5q15 0 22 -10zM600 1847q74 0 135 -54l28 -25 q32 -28 56.5 -41.5t56.5 -13.5q42 0 63 21.5t37 61.5q12 27 36 27q14 0 25 -10t11 -24l-4 -16q-19 -61 -62.5 -95t-97.5 -34q-73 0 -133 51l-37 30q-23 19 -35.5 28t-32 17t-39.5 8q-33 0 -55 -17.5t-30 -38t-21 -38t-30 -17.5q-13 0 -24 10t-11 24q0 7 4 19q20 59 63 93 t97 34z" />
<glyph unicode="&#xd2;" horiz-adv-x="1732" d="M210 717q0 -184 88.5 -334t239 -234t328.5 -84t328.5 84t239.5 234.5t89 333.5q0 137 -52.5 259t-141 207.5t-209.5 135.5t-254 50t-254 -50t-209.5 -135.5t-140.5 -207.5t-52 -259zM120 717q0 206 100.5 375.5t271.5 265t374 95.5t374 -95.5t272 -265t101 -375.5 q0 -155 -59.5 -292t-160 -234t-238 -153.5t-289.5 -56.5t-289.5 56.5t-238 153.5t-159.5 234t-59 292zM638 1878q0 14 10.5 25t25.5 11q12 0 26 -12l262 -254q14 -12 14 -29q0 -14 -10.5 -25t-25.5 -11q-14 0 -27 11l-263 256q-12 12 -12 28z" />
<glyph unicode="&#xd3;" horiz-adv-x="1732" d="M210 717q0 -184 88.5 -334t239 -234t328.5 -84t328.5 84t239.5 234.5t89 333.5q0 137 -52.5 259t-141 207.5t-209.5 135.5t-254 50t-254 -50t-209.5 -135.5t-140.5 -207.5t-52 -259zM120 717q0 206 100.5 375.5t271.5 265t374 95.5t374 -95.5t272 -265t101 -375.5 q0 -155 -59.5 -292t-160 -234t-238 -153.5t-289.5 -56.5t-289.5 56.5t-238 153.5t-159.5 234t-59 292zM1092 1878q0 -15 -15 -30l-258 -247q-16 -16 -32 -16q-13 0 -23.5 10.5t-10.5 24.5q0 17 14 29l260 249q14 14 31 14q14 0 24 -10t10 -24z" />
<glyph unicode="&#xd4;" horiz-adv-x="1732" d="M210 717q0 -184 88.5 -334t239 -234t328.5 -84t328.5 84t239.5 234.5t89 333.5q0 137 -52.5 259t-141 207.5t-209.5 135.5t-254 50t-254 -50t-209.5 -135.5t-140.5 -207.5t-52 -259zM120 717q0 206 100.5 375.5t271.5 265t374 95.5t374 -95.5t272 -265t101 -375.5 q0 -155 -59.5 -292t-160 -234t-238 -153.5t-289.5 -56.5t-289.5 56.5t-238 153.5t-159.5 234t-59 292zM865 1817l-211 -218q-11 -13 -28 -13q-15 0 -25 10t-10 25q0 18 11 29l242 243q12 12 21 12q13 0 23 -12l241 -245q13 -13 13 -27q0 -15 -10 -25t-25 -10q-19 0 -28 10z " />
<glyph unicode="&#xd5;" horiz-adv-x="1732" d="M210 717q0 -184 88.5 -334t239 -234t328.5 -84t328.5 84t239.5 234.5t89 333.5q0 137 -52.5 259t-141 207.5t-209.5 135.5t-254 50t-254 -50t-209.5 -135.5t-140.5 -207.5t-52 -259zM120 717q0 206 100.5 375.5t271.5 265t374 95.5t374 -95.5t272 -265t101 -375.5 q0 -155 -59.5 -292t-160 -234t-238 -153.5t-289.5 -56.5t-289.5 56.5t-238 153.5t-159.5 234t-59 292zM724 1847q74 0 135 -54l28 -25q32 -29 56 -42t56 -13q42 0 63.5 22t37.5 61q12 27 36 27q14 0 24.5 -10t10.5 -24q0 -4 -3 -16q-19 -61 -62.5 -95t-97.5 -34 q-74 0 -134 51l-36 30q-23 19 -35.5 28t-32 17t-39.5 8q-33 0 -55 -17.5t-30 -38t-21 -38t-30 -17.5q-13 0 -24 10t-11 24q0 7 4 19q20 59 63 93t97 34z" />
<glyph unicode="&#xd6;" horiz-adv-x="1732" d="M210 717q0 -184 88.5 -334t239 -234t328.5 -84t328.5 84t239.5 234.5t89 333.5q0 137 -52.5 259t-141 207.5t-209.5 135.5t-254 50t-254 -50t-209.5 -135.5t-140.5 -207.5t-52 -259zM120 717q0 206 100.5 375.5t271.5 265t374 95.5t374 -95.5t272 -265t101 -375.5 q0 -155 -59.5 -292t-160 -234t-238 -153.5t-289.5 -56.5t-289.5 56.5t-238 153.5t-159.5 234t-59 292zM674 1682q-27 0 -46 19t-19 46q0 26 19 44.5t46 18.5q26 0 45 -18.5t19 -44.5q0 -27 -19 -46t-45 -19zM1058 1682q-27 0 -46 19t-19 46q0 26 19 44.5t46 18.5 q26 0 45 -18.5t19 -44.5q0 -27 -19 -46t-45 -19z" />
<glyph unicode="&#xd7;" horiz-adv-x="1309" d="M715 705l340 -341q12 -12 12 -30t-12 -29.5t-30 -11.5q-19 0 -42 23l-329 327l-327 -327q-23 -23 -42 -23q-18 0 -30 11.5t-12 29.5t12 30l340 341l-327 325q-24 24 -24 43q0 18 11.5 30t29.5 12q17 0 31 -14l338 -337l339 337q14 14 32 14t29.5 -12t11.5 -30t-25 -43z " />
<glyph unicode="&#xd8;" horiz-adv-x="1732" d="M120 715q0 206 100.5 377.5t271.5 268.5t374 97q178 0 336 -80l131 227q10 19 32 19q14 0 25 -10.5t11 -24.5q0 -13 -7 -23l-129 -224q160 -102 254 -265.5t94 -361.5q0 -154 -59.5 -292.5t-160 -237t-238 -156t-289.5 -57.5q-183 0 -339 79l-126 -220q-12 -19 -32 -19 q-15 0 -25 10.5t-10 25.5q0 13 5 21l125 218q-158 100 -251 265t-93 363zM210 715q0 -175 80 -319.5t217 -233.5l653 1142q-142 70 -294 70q-133 0 -254 -50.5t-209.5 -137.5t-140.5 -210t-52 -261zM866 56q178 0 328.5 86t239.5 238t89 335q0 176 -80.5 321t-219.5 233 q-73 -127 -206.5 -360t-242.5 -423.5t-205 -359.5q136 -70 297 -70z" />
<glyph unicode="&#xd9;" d="M648 65q167 0 268 114.5t101 312.5v906q0 18 12.5 31.5t30.5 13.5q19 0 32 -13.5t13 -31.5v-910q0 -235 -129 -371t-328 -136t-328 136t-129 371v910q0 18 13 31.5t32 13.5q18 0 31.5 -13.5t13.5 -31.5v-906q0 -198 100.5 -312.5t266.5 -114.5zM446 1878q0 14 10.5 25 t25.5 11q14 0 27 -12l261 -254q14 -12 14 -29q0 -15 -10 -25.5t-25 -10.5q-14 0 -27 11l-263 256q-13 13 -13 28z" />
<glyph unicode="&#xda;" d="M648 65q167 0 268 114.5t101 312.5v906q0 18 12.5 31.5t30.5 13.5q19 0 32 -13.5t13 -31.5v-910q0 -235 -129 -371t-328 -136t-328 136t-129 371v910q0 18 13 31.5t32 13.5q18 0 31.5 -13.5t13.5 -31.5v-906q0 -198 100.5 -312.5t266.5 -114.5zM884 1878q0 -15 -15 -30 l-258 -247q-16 -16 -31 -16q-13 0 -24 10.5t-11 24.5q0 17 14 29l260 249q14 14 31 14q14 0 24 -10t10 -24z" />
<glyph unicode="&#xdb;" d="M648 66q167 0 268 114.5t101 312.5v906q0 18 12.5 31.5t30.5 13.5q19 0 32 -13.5t13 -31.5v-910q0 -235 -129 -371t-328 -136t-328 136t-129 371v910q0 18 13 31.5t32 13.5q18 0 31.5 -13.5t13.5 -31.5v-906q0 -198 100.5 -312.5t266.5 -114.5zM664 1817l-211 -218 q-11 -13 -29 -13q-15 0 -25 10t-10 25q0 18 11 29l242 243q12 12 22 12q12 0 22 -12l242 -245q12 -12 12 -27t-10 -25t-25 -10q-18 0 -27 10z" />
<glyph unicode="&#xdc;" d="M648 65q167 0 268 114.5t101 312.5v906q0 18 12.5 31.5t30.5 13.5q19 0 32 -13.5t13 -31.5v-910q0 -235 -129 -371t-328 -136t-328 136t-129 371v910q0 18 13 31.5t32 13.5q18 0 31.5 -13.5t13.5 -31.5v-906q0 -198 100.5 -312.5t266.5 -114.5zM457 1682q-27 0 -46 19 t-19 46q0 26 19 44.5t46 18.5q26 0 45 -18.5t19 -44.5q0 -27 -19 -46t-45 -19zM841 1682q-27 0 -46 19t-19 46q0 26 19 44.5t46 18.5q26 0 45 -18.5t19 -44.5q0 -27 -19 -46t-45 -19z" />
<glyph unicode="&#xdd;" horiz-adv-x="1192" d="M596 -9q-20 0 -32.5 12.5t-12.5 32.5v550l-504 794q-8 14 -8 26q0 19 13.5 32.5t32.5 13.5q23 0 42 -29l469 -747l470 748q17 28 40 28q19 0 32.5 -13.5t13.5 -32.5q0 -12 -7 -24l-504 -796v-550q0 -19 -13 -32t-32 -13zM848 1878q0 -16 -14 -30l-259 -247 q-16 -16 -31 -16q-13 0 -24 10.5t-11 24.5q0 17 14 29l260 249q14 14 31 14q14 0 24 -10t10 -24z" />
<glyph unicode="&#xde;" horiz-adv-x="1027" d="M282 324v-287q0 -18 -13 -30.5t-32 -12.5t-32.5 12.5t-13.5 30.5v1379q0 18 13.5 31.5t32.5 13.5t32 -13.5t13 -31.5v-277h194q214 0 340 -116t126 -292t-125.5 -291.5t-340.5 -115.5h-194zM282 1057v-651h190q172 0 276 88.5t104 236.5t-104 237t-276 89h-190z" />
<glyph unicode="&#xdf;" horiz-adv-x="1165" d="M426 62q0 17 11 27.5t29 10.5q8 0 18 -5q72 -40 159 -40q146 0 238 98t92 259q0 160 -111.5 261.5t-309.5 114.5q-14 1 -22.5 12t-8.5 24q0 30 28 37q131 28 207.5 109t76.5 195q0 121 -84 208t-213 87q-141 0 -216.5 -94.5t-75.5 -244.5v-1088q0 -18 -12.5 -30 t-30.5 -12t-30 12t-12 30v1083q0 192 101.5 306t277.5 114q159 0 267 -108.5t108 -256.5q0 -119 -65.5 -208t-202.5 -134q187 -15 300 -132t113 -282q0 -190 -110 -312t-311 -122q-110 0 -191 47q-20 11 -20 34z" />
<glyph unicode="&#xe0;" horiz-adv-x="1315" d="M1051 710v215q0 18 12 30.5t30 12.5q17 0 30 -13t13 -30v-892q0 -18 -12.5 -30t-30.5 -12t-30 12t-12 30v216q-59 -126 -177.5 -197t-262.5 -71q-135 0 -250 63.5t-184 178.5t-69 256t69 256t184 179t250 64q144 0 263 -71.5t177 -196.5zM1049 479q0 180 -125.5 301.5 t-302.5 121.5q-179 0 -304.5 -121.5t-125.5 -301.5t125.5 -302t304.5 -122q177 0 302.5 122t125.5 302zM471 1420q0 14 10.5 25t25.5 11q13 0 27 -12l261 -254q14 -12 14 -29q0 -14 -10.5 -25t-25.5 -11q-13 0 -27 12l-263 256q-12 12 -12 27z" />
<glyph unicode="&#xe1;" horiz-adv-x="1315" d="M1051 710v215q0 18 12 30.5t30 12.5q17 0 30 -13t13 -30v-892q0 -18 -12.5 -30t-30.5 -12t-30 12t-12 30v216q-59 -126 -177.5 -197t-262.5 -71q-135 0 -250 63.5t-184 178.5t-69 256t69 256t184 179t250 64q144 0 263 -71.5t177 -196.5zM1049 479q0 180 -125.5 301.5 t-302.5 121.5q-179 0 -304.5 -121.5t-125.5 -301.5t125.5 -302t304.5 -122q177 0 302.5 122t125.5 302zM829 1420q0 -15 -14 -29l-258 -248q-16 -16 -32 -16q-13 0 -24 10.5t-11 24.5q0 16 15 29l260 250q13 13 31 13q13 0 23 -10t10 -24z" />
<glyph unicode="&#xe2;" horiz-adv-x="1315" d="M1051 710v215q0 18 12 30.5t30 12.5q17 0 30 -13t13 -30v-892q0 -18 -12.5 -30t-30.5 -12t-30 12t-12 30v216q-59 -126 -177.5 -197t-262.5 -71q-135 0 -250 63.5t-184 178.5t-69 256t69 256t184 179t250 64q144 0 263 -71.5t177 -196.5zM1049 479q0 180 -125.5 301.5 t-302.5 121.5q-179 0 -304.5 -121.5t-125.5 -301.5t125.5 -302t304.5 -122q177 0 302.5 122t125.5 302zM657 1359l-211 -217q-12 -14 -28 -14q-15 0 -25 10t-10 25q0 18 11 29l242 244q11 11 21 11q14 0 23 -11l242 -246q12 -12 12 -27t-10 -25t-25 -10q-19 0 -28 11z" />
<glyph unicode="&#xe3;" horiz-adv-x="1315" d="M1051 710v215q0 18 12 30.5t30 12.5q17 0 30 -13t13 -30v-892q0 -18 -12.5 -30t-30.5 -12t-30 12t-12 30v216q-59 -126 -177.5 -197t-262.5 -71q-135 0 -250 63.5t-184 178.5t-69 256t69 256t184 179t250 64q144 0 263 -71.5t177 -196.5zM1049 479q0 180 -125.5 301.5 t-302.5 121.5q-179 0 -304.5 -121.5t-125.5 -301.5t125.5 -302t304.5 -122q177 0 302.5 122t125.5 302zM516 1390q73 0 135 -55l28 -24q32 -29 56.5 -42.5t56.5 -13.5q42 0 63 21.5t37 61.5q12 27 36 27q14 0 25 -10t11 -24q0 -4 -3 -16q-19 -61 -63 -95t-98 -34 q-73 0 -133 51l-37 31q-22 18 -35 27.5t-32.5 17t-39.5 7.5q-33 0 -55 -17.5t-30 -38t-21 -38t-30 -17.5q-13 0 -24 10t-11 24q0 8 4 20q20 59 63 93t97 34z" />
<glyph unicode="&#xe4;" horiz-adv-x="1315" d="M1051 710v215q0 18 12 30.5t30 12.5q17 0 30 -13t13 -30v-892q0 -18 -12.5 -30t-30.5 -12t-30 12t-12 30v216q-59 -126 -177.5 -197t-262.5 -71q-135 0 -250 63.5t-184 178.5t-69 256t69 256t184 179t250 64q144 0 263 -71.5t177 -196.5zM1049 479q0 180 -125.5 301.5 t-302.5 121.5q-179 0 -304.5 -121.5t-125.5 -301.5t125.5 -302t304.5 -122q177 0 302.5 122t125.5 302zM438 1225q-27 0 -45.5 18.5t-18.5 45.5q0 26 18.5 45t45.5 19q26 0 45.5 -19t19.5 -45q0 -27 -19 -45.5t-46 -18.5zM822 1225q-27 0 -45.5 18.5t-18.5 45.5 q0 26 18.5 45t45.5 19q26 0 45.5 -19t19.5 -45q0 -27 -19 -45.5t-46 -18.5z" />
<glyph unicode="&#xe5;" horiz-adv-x="1315" d="M1051 710v215q0 18 12 30.5t30 12.5q17 0 30 -13t13 -30v-892q0 -18 -12.5 -30t-30.5 -12t-30 12t-12 30v216q-59 -126 -177.5 -197t-262.5 -71q-135 0 -250 63.5t-184 178.5t-69 256t69 256t184 179t250 64q144 0 263 -71.5t177 -196.5zM1049 479q0 180 -125.5 301.5 t-302.5 121.5q-179 0 -304.5 -121.5t-125.5 -301.5t125.5 -302t304.5 -122q177 0 302.5 122t125.5 302zM444 1289q0 77 54.5 129t131.5 52t131.5 -52t54.5 -129t-54.5 -129t-131.5 -52t-131.5 52t-54.5 129zM507 1289q0 -52 35.5 -87.5t87.5 -35.5t87.5 35.5t35.5 87.5 q0 51 -35.5 87t-87.5 36t-87.5 -36t-35.5 -87z" />
<glyph unicode="&#xe6;" horiz-adv-x="1955" d="M205 292q0 -107 95 -175.5t230 -68.5t230.5 68.5t95.5 175.5q0 108 -95.5 178.5t-230.5 70.5t-230 -70.5t-95 -178.5zM1356 905q-160 0 -274 -103.5t-135 -261.5h817q-21 160 -134 262.5t-274 102.5zM163 804q0 23 15 36q158 143 346 143q157 0 257 -78t132 -212 q58 133 176.5 211.5t265.5 78.5q99 0 191 -39.5t157 -104t105 -148.5t43 -170q-1 -49 -47 -49h-861q20 -179 136 -296.5t295 -117.5q214 0 341 161q13 19 32 19q17 0 28.5 -11t11.5 -28q0 -15 -10 -29q-65 -89 -173 -139t-230 -50q-147 0 -269 72t-184 196 q-11 -59 -39.5 -105.5t-67.5 -76.5t-89 -49.5t-100 -28t-103 -8.5q-167 0 -284.5 86.5t-117.5 224.5t118 227t278 89q105 0 196.5 -41t143.5 -114v90q0 173 -87.5 269.5t-248.5 96.5q-74 0 -152 -35t-139 -94q-15 -13 -29 -13t-25.5 11t-11.5 26z" />
<glyph unicode="&#xe7;" horiz-adv-x="1003" d="M108 479q0 141 69.5 256t187 179t255.5 64q172 0 305 -99q15 -11 15 -32q0 -15 -11.5 -26.5t-27.5 -11.5q-18 0 -29 11q-117 80 -252 80q-179 0 -303 -120.5t-124 -300.5t124 -300.5t303 -120.5q142 0 254 80q11 9 27 9t27.5 -11t11.5 -26q0 -20 -17 -32 q-131 -92 -291 -97l-36 -69q92 -25 138 -80.5t46 -119.5q0 -33 -11.5 -66t-35.5 -64t-69 -50t-104 -19q-46 0 -104 23t-58 54q0 14 8 23t20 9q14 0 25 -9q54 -39 107 -39q73 0 111 41t38 97q0 61 -50 105t-123 52q-18 2 -18 16q0 9 3 15l45 84q-194 20 -325 158.5 t-131 336.5z" />
<glyph unicode="&#xe8;" horiz-adv-x="1197" d="M419 1420q0 14 10.5 25t25.5 11q13 0 26 -12l261 -254q15 -13 15 -29q0 -14 -10.5 -25t-25.5 -11q-13 0 -27 12l-263 256q-12 12 -12 27zM620 -19q-138 0 -255 64t-187 179t-70 255q0 139 65.5 254t178.5 180t248 65q133 0 246 -64.5t178.5 -173.5t65.5 -234 q0 -14 -9 -24t-25 -10h-862q5 -175 126.5 -294.5t300.5 -119.5q205 0 335 169q13 18 33 18q17 0 28.5 -11.5t11.5 -28.5q0 -16 -10 -28q-155 -196 -399 -196zM198 540h808q-21 160 -132.5 260t-272.5 100q-158 0 -270 -101t-133 -259z" />
<glyph unicode="&#xe9;" horiz-adv-x="1197" d="M620 -19q-138 0 -255 64t-187 179t-70 255q0 139 65.5 254t178.5 180t248 65q131 0 241 -61t177 -169t74 -242q0 -14 -9 -24t-25 -10h-864q5 -175 126.5 -294.5t300.5 -119.5q205 0 335 169q13 18 33 18q17 0 28.5 -11.5t11.5 -28.5q0 -16 -10 -28q-155 -196 -399 -196z M198 540h808q-21 160 -132.5 260t-272.5 100q-158 0 -270 -101t-133 -259zM788 1420q0 -15 -14 -29l-258 -248q-16 -16 -32 -16q-13 0 -23.5 10.5t-10.5 24.5q0 17 14 29l260 250q13 13 31 13q13 0 23 -10t10 -24z" />
<glyph unicode="&#xea;" horiz-adv-x="1197" d="M598 1359l-211 -217q-12 -14 -29 -14q-15 0 -24.5 10t-9.5 25q0 18 11 29l242 244q11 11 21 11q14 0 23 -11l241 -246q12 -12 12 -27t-9.5 -25t-24.5 -10q-19 0 -28 11zM620 -19q-138 0 -255 64t-187 179t-70 255q0 139 65.5 254t178.5 180t248 65q133 0 246 -64.5 t178.5 -173.5t65.5 -234q0 -14 -9 -24t-25 -10h-862q5 -175 126.5 -294.5t300.5 -119.5q205 0 335 169q13 18 33 18q17 0 28.5 -11.5t11.5 -28.5q0 -16 -10 -28q-155 -196 -399 -196zM198 540h808q-21 160 -132.5 260t-272.5 100q-158 0 -270 -101t-133 -259z" />
<glyph unicode="&#xeb;" horiz-adv-x="1197" d="M620 -19q-138 0 -255 64t-187 179t-70 255q0 139 65.5 254t178.5 180t248 65q133 0 246 -64.5t178.5 -173.5t65.5 -234q0 -14 -9 -24t-25 -10h-862q5 -175 126.5 -294.5t300.5 -119.5q205 0 335 169q13 18 33 18q17 0 28.5 -11.5t11.5 -28.5q0 -16 -10 -28 q-155 -196 -399 -196zM198 540h808q-21 160 -132.5 260t-272.5 100q-158 0 -270 -101t-133 -259zM408 1225q-27 0 -46 18.5t-19 45.5q0 26 19 45t46 19q26 0 45 -19t19 -45q0 -27 -19 -45.5t-45 -18.5zM792 1225q-27 0 -46 18.5t-19 45.5q0 26 19 45t46 19q26 0 45 -19 t19 -45q0 -27 -19 -45.5t-45 -18.5z" />
<glyph unicode="&#xec;" horiz-adv-x="483" d="M-30 1420q0 14 10.5 25t25.5 11q14 0 27 -12l261 -254q14 -12 14 -29q0 -14 -10.5 -25t-25.5 -11q-12 0 -26 12l-263 256q-13 13 -13 27zM199 33v892q0 18 12.5 30.5t30.5 12.5q17 0 29.5 -13t12.5 -30v-892q0 -18 -12.5 -30t-29.5 -12q-19 0 -31 12t-12 30z" />
<glyph unicode="&#xed;" horiz-adv-x="483" d="M519 1420q0 -15 -14 -29l-258 -248q-16 -16 -32 -16q-13 0 -24 10.5t-11 24.5q0 16 15 29l260 250q13 13 30 13q13 0 23.5 -10t10.5 -24zM199 33v892q0 18 12.5 30.5t30.5 12.5q17 0 29.5 -13t12.5 -30v-892q0 -18 -12.5 -30t-29.5 -12q-19 0 -31 12t-12 30z" />
<glyph unicode="&#xee;" horiz-adv-x="483" d="M199 33v892q0 18 12.5 30.5t30.5 12.5q17 0 29.5 -13t12.5 -30v-892q0 -18 -12.5 -30t-29.5 -12q-19 0 -31 12t-12 30zM241 1359l-211 -217q-12 -14 -29 -14q-15 0 -25 10t-10 25q0 18 11 29l242 244q11 11 22 11q13 0 22 -11l242 -246q12 -12 12 -27t-10 -25t-25 -10 q-18 0 -27 11z" />
<glyph unicode="&#xef;" horiz-adv-x="483" d="M49 1225q-27 0 -45.5 18.5t-18.5 45.5q0 26 18.5 45t45.5 19q26 0 45.5 -19t19.5 -45q0 -27 -19 -45.5t-46 -18.5zM433 1225q-27 0 -45.5 18.5t-18.5 45.5q0 26 18.5 45t45.5 19q26 0 45.5 -19t19.5 -45q0 -27 -19 -45.5t-46 -18.5zM199 33v892q0 18 12.5 30.5t30.5 12.5 q17 0 29.5 -13t12.5 -30v-892q0 -18 -12.5 -30t-29.5 -12q-19 0 -31 12t-12 30z" />
<glyph unicode="&#xf0;" horiz-adv-x="1233" d="M260 1105q0 21 16 30q142 76 275 151q-58 42 -210 129q-26 14 -26 37q0 18 11.5 29.5t28.5 11.5q11 0 23 -6q119 -64 251 -159l176 98q13 5 17 5q13 0 23 -9t10 -22q0 -19 -15 -27l-158 -87q443 -359 443 -805q0 -217 -145 -358.5t-364 -141.5t-363.5 141t-144.5 357 q0 215 142 356t358 141q229 0 364 -166q-104 238 -363 434l-299 -164q-10 -6 -19 -6q-13 0 -22 9t-9 22zM193 479q0 -188 120 -304.5t303 -116.5t303.5 116.5t120.5 304.5q0 183 -123 302t-301 119q-183 0 -303 -117t-120 -304z" />
<glyph unicode="&#xf1;" horiz-adv-x="1100" d="M265 925v-137q48 95 130 142.5t188 47.5q142 0 246 -105.5t104 -281.5v-558q0 -18 -12.5 -30t-30.5 -12t-30 12t-12 30v532q0 144 -80 240.5t-212 96.5q-133 0 -212 -94t-79 -237v-538q0 -18 -12.5 -30t-30.5 -12t-30 12t-12 30v892q0 18 12 30.5t30 12.5q17 0 30 -13 t13 -30zM407 1390q73 0 135 -55l27 -24q32 -29 56.5 -42.5t56.5 -13.5q42 0 63 21.5t37 61.5q12 27 36 27q14 0 25 -10t11 -24q0 -4 -3 -16q-19 -61 -63 -95t-98 -34q-73 0 -133 51l-37 31q-23 19 -35 28t-31.5 16.5t-39.5 7.5q-33 0 -55 -17.5t-30 -38t-21 -38t-30 -17.5 q-13 0 -24 10t-11 24q0 8 4 20q20 59 63 93t97 34z" />
<glyph unicode="&#xf2;" horiz-adv-x="1239" d="M193 479q0 -180 124 -300.5t303 -120.5t303 120.5t124 300.5t-124 300.5t-303 120.5t-303 -120.5t-124 -300.5zM108 479q0 141 69.5 256t187 179t255.5 64t255 -64t187 -179t70 -256t-70 -256t-187 -178.5t-255 -63.5q-103 0 -197.5 37.5t-163.5 103t-110 158.5t-41 199z M432 1420q0 14 10.5 25t25.5 11q14 0 27 -12l261 -254q14 -12 14 -29q0 -14 -10.5 -25t-25.5 -11q-12 0 -26 12l-264 256q-12 12 -12 27z" />
<glyph unicode="&#xf3;" horiz-adv-x="1239" d="M193 479q0 -180 124 -300.5t303 -120.5t303 120.5t124 300.5t-124 300.5t-303 120.5t-303 -120.5t-124 -300.5zM108 479q0 141 69.5 256t187 179t255.5 64t255 -64t187 -179t70 -256t-70 -256t-187 -178.5t-255 -63.5q-103 0 -197.5 37.5t-163.5 103t-110 158.5t-41 199z M861 1420q0 -15 -14 -29l-258 -248q-16 -16 -32 -16q-13 0 -24 10.5t-11 24.5q0 16 15 29l260 250q13 13 30 13q13 0 23.5 -10t10.5 -24z" />
<glyph unicode="&#xf4;" horiz-adv-x="1239" d="M193 479q0 -180 124 -300.5t303 -120.5t303 120.5t124 300.5t-124 300.5t-303 120.5t-303 -120.5t-124 -300.5zM108 479q0 141 69.5 256t187 179t255.5 64t255 -64t187 -179t70 -256t-70 -256t-187 -178.5t-255 -63.5q-103 0 -197.5 37.5t-163.5 103t-110 158.5t-41 199z M618 1359l-210 -217q-12 -14 -29 -14q-15 0 -25 10t-10 25q0 18 11 29l242 244q11 11 21 11q14 0 23 -11l242 -246q12 -12 12 -27t-10 -25t-25 -10q-18 0 -27 11z" />
<glyph unicode="&#xf5;" horiz-adv-x="1239" d="M193 479q0 -180 124 -300.5t303 -120.5t303 120.5t124 300.5t-124 300.5t-303 120.5t-303 -120.5t-124 -300.5zM108 479q0 141 69.5 256t187 179t255.5 64t255 -64t187 -179t70 -256t-70 -256t-187 -178.5t-255 -63.5q-103 0 -197.5 37.5t-163.5 103t-110 158.5t-41 199z M477 1390q73 0 135 -55l28 -24q32 -29 56.5 -42.5t56.5 -13.5q42 0 63 21.5t37 61.5q12 27 36 27q14 0 25 -10t11 -24q0 -4 -3 -16q-19 -61 -63 -95t-98 -34q-73 0 -133 51l-37 31q-22 18 -35 27.5t-32.5 17t-39.5 7.5q-33 0 -55 -17.5t-30 -38t-21 -38t-30 -17.5 q-13 0 -24 10t-11 24q0 8 4 20q20 59 63 93t97 34z" />
<glyph unicode="&#xf6;" horiz-adv-x="1239" d="M193 479q0 -180 124 -300.5t303 -120.5t303 120.5t124 300.5t-124 300.5t-303 120.5t-303 -120.5t-124 -300.5zM108 479q0 141 69.5 256t187 179t255.5 64t255 -64t187 -179t70 -256t-70 -256t-187 -178.5t-255 -63.5q-103 0 -197.5 37.5t-163.5 103t-110 158.5t-41 199z M427 1225q-27 0 -46 18.5t-19 45.5q0 26 19 45t46 19q26 0 45.5 -19t19.5 -45q0 -27 -19 -45.5t-46 -18.5zM811 1225q-27 0 -46 18.5t-19 45.5q0 26 19 45t46 19q26 0 45.5 -19t19.5 -45q0 -27 -19 -45.5t-46 -18.5z" />
<glyph unicode="&#xf7;" horiz-adv-x="1266" d="M553 1085q0 33 23 56t56 23q34 0 56.5 -23t22.5 -56t-22.5 -55.5t-56.5 -22.5q-33 0 -56 22.5t-23 55.5zM553 268q0 32 23 55.5t56 23.5t56 -23t23 -56t-23 -56.5t-56 -23.5t-56 23.5t-23 56.5zM176 713h913q17 0 27.5 -10.5t10.5 -27.5t-10.5 -27t-27.5 -10h-913 q-17 0 -28 10.5t-11 26.5q0 17 11 27.5t28 10.5z" />
<glyph unicode="&#xf8;" horiz-adv-x="1239" d="M403 28l-119 -208q-12 -23 -34 -23q-15 0 -25.5 10.5t-10.5 24.5q0 13 6 22l119 207q-108 69 -169.5 176.5t-61.5 241.5q0 141 69.5 256t187 179t255.5 64q117 0 224 -52l122 213q13 24 33 24q15 0 25.5 -11t10.5 -25q0 -12 -4 -17l-126 -218q105 -69 166 -176t61 -237 q0 -141 -70 -256t-187 -178.5t-255 -63.5q-110 0 -217 47zM620 58q179 0 303 120.5t124 300.5q0 107 -48.5 196t-133.5 147l-422 -727q78 -37 177 -37zM193 479q0 -111 49.5 -201t136.5 -148l425 726q-86 44 -184 44q-177 0 -302 -121t-125 -300z" />
<glyph unicode="&#xf9;" horiz-adv-x="1110" d="M845 33v137q-48 -95 -130 -142t-188 -47q-142 0 -246 105t-104 282v557q0 18 12.5 30.5t30.5 12.5q17 0 29.5 -13t12.5 -30v-533q0 -143 79.5 -240t212.5 -97q132 0 211.5 94.5t79.5 236.5v539q0 18 12.5 30.5t30.5 12.5q17 0 29.5 -13t12.5 -30v-892q0 -18 -12.5 -30 t-29.5 -12q-19 0 -31 12t-12 30zM366 1420q0 15 10 25.5t25 10.5q13 0 27 -12l261 -254q14 -12 14 -29q0 -15 -10 -25.5t-25 -10.5q-13 0 -27 12l-263 256q-12 12 -12 27z" />
<glyph unicode="&#xfa;" horiz-adv-x="1110" d="M845 33v137q-48 -95 -130 -142t-188 -47q-142 0 -246 105t-104 282v557q0 18 12.5 30.5t30.5 12.5q17 0 29.5 -13t12.5 -30v-533q0 -143 79.5 -240t212.5 -97q132 0 211.5 94.5t79.5 236.5v539q0 18 12.5 30.5t30.5 12.5q17 0 29.5 -13t12.5 -30v-892q0 -18 -12.5 -30 t-29.5 -12q-19 0 -31 12t-12 30zM754 1420q0 -14 -15 -29l-258 -248q-16 -16 -31 -16q-13 0 -24 10.5t-11 24.5q0 17 14 29l260 250q13 13 31 13q14 0 24 -10t10 -24z" />
<glyph unicode="&#xfb;" horiz-adv-x="1110" d="M845 33v137q-48 -95 -130 -142t-188 -47q-142 0 -246 105t-104 282v557q0 18 12.5 30.5t30.5 12.5q17 0 29.5 -13t12.5 -30v-533q0 -143 79.5 -240t212.5 -97q132 0 211.5 94.5t79.5 236.5v539q0 18 12.5 30.5t30.5 12.5q17 0 29.5 -13t12.5 -30v-892q0 -18 -12.5 -30 t-29.5 -12q-19 0 -31 12t-12 30zM559 1359l-211 -217q-12 -14 -29 -14q-15 0 -24.5 10t-9.5 25q0 18 11 29l242 244q11 11 21 11q14 0 23 -11l241 -246q13 -13 13 -27q0 -15 -10 -25t-25 -10q-19 0 -28 11z" />
<glyph unicode="&#xfc;" horiz-adv-x="1110" d="M845 33v137q-48 -95 -130 -142t-188 -47q-142 0 -246 105t-104 282v557q0 18 12.5 30.5t30.5 12.5q17 0 29.5 -13t12.5 -30v-533q0 -143 79.5 -240t212.5 -97q132 0 211.5 94.5t79.5 236.5v539q0 18 12.5 30.5t30.5 12.5q17 0 29.5 -13t12.5 -30v-892q0 -18 -12.5 -30 t-29.5 -12q-19 0 -31 12t-12 30zM369 1225q-27 0 -46 18.5t-19 45.5q0 26 19 45t46 19q26 0 45 -19t19 -45q0 -27 -19 -45.5t-45 -18.5zM753 1225q-27 0 -46 18.5t-19 45.5q0 26 19 45t46 19q26 0 45 -19t19 -45q0 -27 -19 -45.5t-45 -18.5z" />
<glyph unicode="&#xfd;" horiz-adv-x="974" d="M223 -541l219 541l-373 924q-3 9 -3 15q0 17 12.5 29.5t30.5 12.5q25 0 38 -31l340 -838l340 838q13 31 39 31q18 0 30.5 -12.5t12.5 -29.5q0 -6 -3 -15l-605 -1497q-5 -11 -17 -19.5t-25 -8.5q-17 0 -28.5 12.5t-11.5 29.5q0 8 4 18zM650 1420q0 -15 -14 -29l-258 -248 q-16 -16 -32 -16q-13 0 -24 10.5t-11 24.5q0 16 15 29l260 250q13 13 30 13q14 0 24 -10t10 -24z" />
<glyph unicode="&#xfe;" horiz-adv-x="1315" d="M180 -539v2041q0 18 12 30.5t30 12.5q17 0 30 -13t13 -30v-792q59 126 177 197t263 71q135 0 250 -64t184 -179t69 -256t-69 -256t-184 -178.5t-250 -63.5q-144 0 -263 71.5t-177 196.5v-788q0 -18 -12.5 -30t-30.5 -12t-30 12t-12 30zM266 479q0 -119 58 -216.5 t156 -152.5t215 -55q177 0 302.5 122t125.5 302t-125.5 301.5t-302.5 121.5q-179 0 -304 -121.5t-125 -301.5z" />
<glyph unicode="&#xff;" horiz-adv-x="974" d="M223 -541l219 541l-373 924q-3 9 -3 15q0 17 12.5 29.5t30.5 12.5q25 0 38 -31l340 -838l340 838q13 31 39 31q18 0 30.5 -12.5t12.5 -29.5q0 -6 -3 -15l-605 -1497q-5 -11 -17 -19.5t-25 -8.5q-17 0 -28.5 12.5t-11.5 29.5q0 8 4 18zM287 1225q-27 0 -46 18.5t-19 45.5 q0 26 19 45t46 19q26 0 45 -19t19 -45q0 -27 -19 -45.5t-45 -18.5zM671 1225q-27 0 -46 18.5t-19 45.5q0 26 19 45t46 19q26 0 45 -19t19 -45q0 -27 -19 -45.5t-45 -18.5z" />
<glyph unicode="&#x152;" horiz-adv-x="1681" d="M1547 0h-682q-204 0 -374 90.5t-270.5 255.5t-100.5 371q0 205 100.5 370.5t270.5 256t374 90.5h661q18 0 30 -12.5t12 -29.5q0 -18 -12 -30t-30 -12h-509v-503h456q17 0 28.5 -12t11.5 -29t-11.5 -29t-28.5 -12h-456v-681h530q18 0 30 -12.5t12 -29.5q0 -18 -12 -30 t-30 -12zM210 717q0 -119 37 -222t102 -178.5t153 -129t191.5 -80.5t215.5 -27h18v1273h-13q-141 0 -267.5 -42.5t-224 -121.5t-155 -201t-57.5 -271z" />
<glyph unicode="&#x153;" horiz-adv-x="2137" d="M1087 300q-55 -145 -184 -235t-286 -90q-102 0 -195.5 38.5t-162.5 105t-110 160.5t-41 200q0 140 69.5 256.5t186.5 182t253 65.5q156 0 284.5 -92t183.5 -236q51 149 173 238.5t281 89.5q131 0 242.5 -63t178.5 -172.5t70 -239.5q0 -15 -10 -25.5t-27 -10.5h-860 q9 -192 132.5 -305.5t293.5 -113.5q206 0 335 168q12 17 32 17q17 0 28.5 -12t11.5 -29q0 -18 -9 -27q-168 -195 -398 -195q-161 0 -288.5 90t-183.5 235zM193 479q0 -180 124.5 -303t302.5 -123t302.5 123.5t124.5 302.5t-124.5 302.5t-302.5 123.5t-302.5 -123 t-124.5 -303zM1539 905q-161 0 -272.5 -104t-130.5 -261h808q-22 161 -132.5 263t-272.5 102z" />
<glyph unicode="&#x178;" horiz-adv-x="1192" d="M596 -9q-20 0 -32.5 12.5t-12.5 32.5v550l-504 794q-8 14 -8 26q0 19 13.5 32.5t32.5 13.5q23 0 42 -29l469 -747l470 748q17 28 40 28q19 0 32.5 -13.5t13.5 -32.5q0 -12 -7 -24l-504 -796v-550q0 -19 -13 -32t-32 -13zM404 1682q-27 0 -45.5 19t-18.5 46 q0 26 18.5 44.5t45.5 18.5q26 0 45.5 -18.5t19.5 -44.5q0 -27 -19.5 -46t-45.5 -19zM788 1682q-27 0 -45.5 19t-18.5 46q0 26 18.5 44.5t45.5 18.5q26 0 45.5 -18.5t19.5 -44.5q0 -27 -19.5 -46t-45.5 -19z" />
<glyph unicode="&#x2c6;" horiz-adv-x="822" d="M411 1399l-211 -217q-12 -14 -29 -14q-15 0 -25 10t-10 25q0 18 11 29l242 244q11 11 22 11q13 0 22 -11l242 -246q12 -12 12 -27t-10 -25t-25 -10q-18 0 -27 11z" />
<glyph unicode="&#x2dc;" horiz-adv-x="822" d="M269 1432q73 0 135 -55l28 -24q32 -29 56.5 -42.5t56.5 -13.5q42 0 63 21.5t37 61.5q12 27 36 27q14 0 25 -10t11 -24q0 -4 -3 -16q-19 -61 -63 -95t-98 -34q-73 0 -133 51l-37 31q-22 18 -35 27.5t-32.5 17t-39.5 7.5q-33 0 -55 -17.5t-30 -38t-21 -38t-30 -17.5 q-13 0 -24 10t-11 24q0 5 5 20q20 59 63 93t96 34z" />
<glyph unicode="&#x2000;" horiz-adv-x="964" />
<glyph unicode="&#x2001;" horiz-adv-x="1928" />
<glyph unicode="&#x2002;" horiz-adv-x="964" />
<glyph unicode="&#x2003;" horiz-adv-x="1928" />
<glyph unicode="&#x2004;" horiz-adv-x="642" />
<glyph unicode="&#x2005;" horiz-adv-x="482" />
<glyph unicode="&#x2006;" horiz-adv-x="321" />
<glyph unicode="&#x2007;" horiz-adv-x="321" />
<glyph unicode="&#x2008;" horiz-adv-x="241" />
<glyph unicode="&#x2009;" horiz-adv-x="385" />
<glyph unicode="&#x200a;" horiz-adv-x="107" />
<glyph unicode="&#x2010;" horiz-adv-x="831" d="M152 718h526q17 0 28 -10.5t11 -27.5t-10.5 -27.5t-27.5 -10.5h-528q-17 0 -27.5 10.5t-10.5 27.5t11 27.5t28 10.5z" />
<glyph unicode="&#x2011;" horiz-adv-x="831" d="M152 718h526q17 0 28 -10.5t11 -27.5t-10.5 -27.5t-27.5 -10.5h-528q-17 0 -27.5 10.5t-10.5 27.5t11 27.5t28 10.5z" />
<glyph unicode="&#x2012;" horiz-adv-x="831" d="M152 718h526q17 0 28 -10.5t11 -27.5t-10.5 -27.5t-27.5 -10.5h-528q-17 0 -27.5 10.5t-10.5 27.5t11 27.5t28 10.5z" />
<glyph unicode="&#x2013;" horiz-adv-x="1024" d="M994 642h-964q-17 0 -28 10.5t-11 27.5q0 16 11 26.5t28 10.5h964q17 0 28 -10.5t11 -26.5q0 -17 -11 -27.5t-28 -10.5z" />
<glyph unicode="&#x2014;" horiz-adv-x="2048" d="M2018 642h-1988q-17 0 -28 10.5t-11 27.5q0 16 11 26.5t28 10.5h1988q17 0 28 -10.5t11 -26.5q0 -17 -11 -27.5t-28 -10.5z" />
<glyph unicode="&#x2018;" horiz-adv-x="601" d="M435 1520q0 -18 -7 -39l-107 -334q-12 -37 -45 -37q-22 0 -33 14t-11 34q0 10 17 59l112 305q12 33 36 33q16 0 27 -10t11 -25z" />
<glyph unicode="&#x2019;" horiz-adv-x="601" d="M168 1149q0 18 7 39l108 334q12 37 44 37q22 0 33 -14.5t11 -34.5q0 -9 -17 -58l-112 -305q-12 -34 -36 -34q-16 0 -27 10.5t-11 25.5z" />
<glyph unicode="&#x201a;" horiz-adv-x="601" d="M168 -276q0 17 7 38l108 334q12 37 44 37q22 0 33 -14t11 -34q0 -9 -17 -58l-112 -306q-12 -33 -36 -33q-16 0 -27 10.5t-11 25.5z" />
<glyph unicode="&#x201c;" horiz-adv-x="930" d="M714 1520q0 -18 -7 -39l-108 -334q-12 -37 -44 -37q-22 0 -33 14t-11 34q0 13 16 59l113 305q12 33 36 33q16 0 27 -10t11 -25zM417 1520q0 -18 -7 -39l-108 -334q-12 -37 -44 -37q-22 0 -33 14t-11 34q0 13 16 59l113 305q12 33 36 33q16 0 27 -10t11 -25z" />
<glyph unicode="&#x201d;" horiz-adv-x="930" d="M499 1150q0 18 7 39l107 334q12 37 44 37q22 0 33 -14.5t11 -34.5q0 -12 -16 -58l-113 -305q-12 -34 -35 -34q-16 0 -27 10.5t-11 25.5zM193 1150q0 18 7 39l107 334q12 37 44 37q22 0 33 -14.5t11 -34.5q0 -12 -16 -58l-113 -305q-12 -34 -36 -34q-16 0 -26.5 10.5 t-10.5 25.5z" />
<glyph unicode="&#x201e;" horiz-adv-x="985" d="M253 -276q0 17 7 38l108 334q12 37 44 37q22 0 33 -14t11 -34q0 -9 -17 -58l-112 -306q-12 -33 -36 -33q-16 0 -27 10.5t-11 25.5zM518 -276q0 17 7 38l108 334q12 37 44 37q22 0 33 -14t11 -34q0 -12 -16 -58l-113 -306q-12 -33 -36 -33q-16 0 -27 10.5t-11 25.5z" />
<glyph unicode="&#x2022;" horiz-adv-x="972" d="M486 461q-92 0 -156 63.5t-64 155.5t64 155.5t156 63.5t156 -63.5t64 -155.5t-64 -155.5t-156 -63.5z" />
<glyph unicode="&#x2026;" horiz-adv-x="1803" d="M1335 50q0 32 21.5 53.5t53.5 21.5t53.5 -21.5t21.5 -53.5t-21.5 -53.5t-53.5 -21.5t-53.5 21.5t-21.5 53.5zM819 50q0 32 21.5 53.5t53.5 21.5t53.5 -21.5t21.5 -53.5t-21.5 -53.5t-53.5 -21.5t-53.5 21.5t-21.5 53.5zM325 50q0 32 21 53.5t53 21.5t53.5 -21.5 t21.5 -53.5t-21.5 -53.5t-53.5 -21.5t-53 21.5t-21 53.5z" />
<glyph unicode="&#x202f;" horiz-adv-x="385" />
<glyph unicode="&#x2039;" horiz-adv-x="770" d="M606 913l-365 -274l365 -274q16 -11 16 -30q0 -15 -10.5 -25.5t-25.5 -10.5q-12 0 -28 13l-410 309q-10 7 -10 18t10 18l410 309q16 13 28 13q15 0 25.5 -10.5t10.5 -25.5q0 -19 -16 -30z" />
<glyph unicode="&#x203a;" horiz-adv-x="770" d="M529 639l-365 274q-16 11 -16 30q0 15 10.5 25.5t25.5 10.5q12 0 28 -13l410 -309q10 -7 10 -18t-10 -18l-410 -309q-16 -13 -28 -13q-15 0 -25.5 10.5t-10.5 25.5q0 19 16 30z" />
<glyph unicode="&#x205f;" horiz-adv-x="482" />
<glyph unicode="&#x20ac;" horiz-adv-x="1296" d="M139 717q0 71 6 121h-94q-12 0 -20.5 8t-8.5 20t8.5 21t20.5 9h104q43 253 205 407.5t406 154.5q246 0 418 -195q14 -14 14 -32q0 -17 -11.5 -28.5t-28.5 -11.5q-7 0 -14 3.5t-11.5 7.5t-12 11.5l-9.5 9.5q-131 154 -344 154q-207 0 -342.5 -131.5t-178.5 -349.5h634 q12 0 20.5 -9t8.5 -21t-8.5 -20t-20.5 -8h-644q-8 -67 -8 -121q0 -57 8 -118h644q12 0 20.5 -9t8.5 -21t-8.5 -20t-20.5 -8h-634q43 -219 178.5 -352t342.5 -133q197 0 343 153q33 33 48 33q17 0 28.5 -11.5t11.5 -28.5q0 -16 -15 -33q-161 -194 -417 -194 q-245 0 -406.5 155t-205.5 411h-103q-12 0 -20.5 8t-8.5 20t8.5 21t20.5 9h94q-6 46 -6 118z" />
<glyph unicode="&#x2122;" horiz-adv-x="1343" d="M882 734q-13 0 -18 14l-170 536l-123 -530q-7 -29 -32 -29q-13 0 -23 10t-10 22q0 6 1 8l161 645q4 16 20 16q15 0 20 -16l174 -524l174 524q5 16 20 16q16 0 20 -16l159 -642q2 -2 2 -11q0 -12 -9.5 -22t-22.5 -10q-26 0 -33 29l-122 530l-170 -536q-5 -14 -18 -14z M255 767v599h-155q-12 0 -20.5 9t-8.5 21t8.5 20.5t20.5 8.5h377q12 0 21 -8.5t9 -20.5t-9 -21t-21 -9h-156v-599q0 -14 -10 -23.5t-23 -9.5q-14 0 -23.5 9.5t-9.5 23.5z" />
<glyph unicode="&#x25fc;" horiz-adv-x="977" d="M0 978h978v-978h-978v978z" />
</font>
</defs>
</svg>
